<svg version="1.1" id="Layer_1" xmlns="http://www.w3.org/2000/svg" x="0" y="0" viewBox="0 0 101.9 125.4" xml:space="preserve"><style>.st0{fill:#121414}</style><path class="st0" d="m62.6 50.2.9-1.7 5.8-10.8h-9.7l-7.1 12.8zM69.4 51.4H69.7l8.1.1 8.6-13.8H76.1l-7.2 13.7zM50.2 106.7l.8 14H27.3l2.5-23.6z"/><path class="st0" d="m77.4 97.2 1.8 23.5H57.7l1.9-29-8.4 7.4-21.6-9.3L5.7 58.5 13 37.3l9.6-6.1.2-.1 2.1.3 27.3 4.5-7.4 12.9-20.3.5 2.7 5.8 15.2 1 2.9.2.4.5 22.6 25-.9-7.1-11.7-17.4 13.4.2 12.1.1 11.7-19 .1 1.7 1.7 24.4zM22.1 24.8l.1.3 3.4.3h.2l8.4.8-.6-17.4-14 4.7 2.5 11.3zM41.9 27.5l11.9 1.4 1.8-23.3h-16l.6 21.7zM63.2 31.6h7.7l.2-1.1.2-.7 3.5-18.4.8-4.1-11.5-1.4-2.4-.3-1.9 24.2-.1 1.2v.6h2zM80.5 31.6h8.1l.7-1.8L93.6 18l-10.4-4.5-2.4-1-3.4 17.3-.3 1.8H80z"/></svg>
