<?xml version="1.0" encoding="utf-8"?>
<!-- Generator: Adobe Illustrator 25.4.1, SVG Export Plug-In . SVG Version: 6.00 Build 0)  -->
<svg version="1.1" id="Layer_1" xmlns="http://www.w3.org/2000/svg" xmlns:xlink="http://www.w3.org/1999/xlink" x="0px" y="0px"
	 viewBox="0 0 101.9 125.4" style="enable-background:new 0 0 101.9 125.4;" xml:space="preserve">
<style type="text/css">
	.st0{fill:#121414;}
</style>
<g>
	<polygon class="st0" points="62.6,50.2 63.5,48.5 69.3,37.7 59.6,37.7 52.5,50.5 	"/>
	<polygon class="st0" points="69.4,51.4 69.4,51.4 69.6,51.4 69.7,51.4 77.8,51.5 86.4,37.7 77.1,37.7 76.1,37.7 68.9,51.4 	"/>
	<polygon class="st0" points="50.2,106.7 51,120.7 27.3,120.7 29.8,97.1 	"/>
	<polygon class="st0" points="77.4,97.2 79.2,120.7 57.7,120.7 59.6,91.7 51.2,99.1 29.6,89.8 5.7,58.5 13,37.3 22.6,31.2 
		22.8,31.1 24.9,31.4 52.2,35.9 44.8,48.8 24.5,49.3 27.2,55.1 42.4,56.1 45.3,56.3 45.7,56.8 68.3,81.8 67.4,74.7 55.7,57.3 
		69.1,57.5 81.2,57.6 92.9,38.6 93,40.3 94.7,64.7 	"/>
	<polygon class="st0" points="22.1,24.8 22.2,25.1 25.6,25.4 25.6,25.4 25.7,25.4 25.7,25.4 25.8,25.4 34.2,26.2 33.6,8.8 
		19.6,13.5 22.1,24.8 	"/>
	<polygon class="st0" points="41.9,27.5 53.8,28.9 55.6,5.6 39.9,5.6 39.6,5.6 40.2,27.3 	"/>
	<polygon class="st0" points="63.2,31.6 70.9,31.6 71.1,30.5 71.3,29.8 74.8,11.4 75.6,7.3 64.1,5.9 61.7,5.6 59.8,29.8 59.7,31 
		59.7,31.6 61.7,31.6 	"/>
	<polygon class="st0" points="80.5,31.6 88.6,31.6 89.3,29.8 93.6,18 83.2,13.5 80.8,12.5 77.4,29.8 77.1,31.6 80,31.6 	"/>
</g>
</svg>
