<svg width="304" height="163" viewBox="0 0 304 163" fill="none" xmlns="http://www.w3.org/2000/svg">
<g clip-path="url(#clip0_2026_70)">
<path d="M8.71645 27.1376H21.7565C22.1051 27.1376 22.2795 26.9983 22.2795 26.6848V25.7093C22.2795 25.3958 22.1051 25.2216 21.7565 25.2216H10.8084C10.5295 25.2216 10.39 25.1171 10.39 24.8733V14.6313C10.39 14.3875 10.5295 14.2481 10.8084 14.2481H20.571C20.8848 14.2481 21.0243 14.1088 21.0243 13.7953V12.8198C21.0243 12.5063 20.8848 12.367 20.571 12.367H10.8084C10.5295 12.367 10.39 12.2276 10.39 11.9838V2.26437C10.39 2.02052 10.5295 1.88117 10.8084 1.88117H21.7565C22.1051 1.88117 22.2795 1.74183 22.2795 1.4283V0.452875C22.2795 0.139346 22.1051 0 21.7565 0H8.71645C8.43752 0 8.26318 0.174183 8.26318 0.487711V26.6151C8.26318 26.9635 8.43752 27.1376 8.71645 27.1376Z" fill="white"/>
<path d="M50.4167 0H48.1155C48.1155 0 47.8017 0.069673 47.732 0.243856L39.7824 18.7769H39.643L31.6934 0.243856C31.6934 0.243856 31.5191 0 31.3099 0H29.0087C28.7298 0 28.5903 0.174183 28.5903 0.487711V26.6151C28.5903 26.9635 28.7298 27.1376 29.0087 27.1376H30.2639C30.5429 27.1376 30.6823 26.9635 30.6823 26.6151V3.20496H30.8566L38.4575 20.7626C38.5621 21.0761 38.7713 21.2154 39.0502 21.2154H40.4449C40.689 21.2154 40.8982 21.0761 41.0725 20.7626L48.5339 3.23979H48.7082V26.6151C48.7082 26.9635 48.8826 27.1376 49.1615 27.1376H50.4167C50.6956 27.1376 50.8351 26.9635 50.8351 26.6151V0.487711C50.8351 0.174183 50.6956 0 50.4167 0Z" fill="white"/>
<path d="M58.436 27.1376H59.6563C59.9701 27.1376 60.1096 26.9635 60.1096 26.6151V17.2441C60.1096 17.035 60.249 16.9305 60.528 16.9305H68.1637C69.9767 16.9305 71.4411 16.3732 72.4871 15.3281C73.568 14.2481 74.091 12.785 74.091 10.9387V5.99188C74.091 4.14554 73.568 2.68241 72.4871 1.60248C71.4411 0.522548 69.9767 0 68.1637 0H58.436C58.157 0 58.0176 0.174183 58.0176 0.487711V26.6151C58.0176 26.9635 58.157 27.1376 58.436 27.1376ZM60.1096 2.26437C60.1096 2.02052 60.249 1.88117 60.528 1.88117H67.9894C69.2794 1.88117 70.2557 2.26437 70.953 2.9611C71.6155 3.69267 71.9641 4.70293 71.9641 6.06155V10.8342C71.9641 12.1579 71.6155 13.1682 70.953 13.8998C70.2557 14.6313 69.2794 14.9797 67.9894 14.9797H60.528C60.249 14.9797 60.1096 14.8752 60.1096 14.6313V2.26437Z" fill="white"/>
<path d="M85.6317 27.1376H90.8268C92.6747 27.1376 94.1042 26.6151 95.1851 25.5352C96.2311 24.4552 96.754 22.9921 96.754 21.1458V5.99188C96.754 4.14554 96.2311 2.68241 95.1851 1.60248C94.1042 0.522548 92.6747 0 90.8268 0H85.6317C83.8186 0 82.3542 0.522548 81.3082 1.60248C80.2622 2.68241 79.7393 4.14554 79.7393 5.99188V21.1458C79.7393 22.9921 80.2622 24.4552 81.3082 25.5352C82.3542 26.6151 83.8186 27.1376 85.6317 27.1376ZM81.8312 6.06155C81.8312 4.73776 82.1799 3.72751 82.8424 2.99594C83.5397 2.26437 84.516 1.88117 85.806 1.88117H90.6176C91.9076 1.88117 92.9187 2.26437 93.6161 2.9611C94.3134 3.69267 94.6272 4.70293 94.6272 6.06155V21.0412C94.6272 22.3999 94.3134 23.445 93.6161 24.1417C92.9187 24.8733 91.9076 25.2216 90.6176 25.2216H85.806C84.516 25.2216 83.5397 24.8733 82.8424 24.1417C82.1799 23.4101 81.8312 22.365 81.8312 21.0412V6.06155Z" fill="white"/>
<path d="M107.668 27.1376H109.76C110.039 27.1376 110.248 26.9635 110.317 26.6151L116.593 2.82176H116.768L123.044 26.6151C123.113 26.9635 123.323 27.1376 123.636 27.1376H125.763C126.077 27.1376 126.286 26.9635 126.321 26.6151L132.109 0.487711C132.214 0.174183 132.074 0 131.725 0H130.296C129.947 0 129.773 0.174183 129.703 0.487711L124.717 24.7339H124.508L118.058 0.452875C117.988 0.139346 117.779 0 117.465 0H115.861C115.547 0 115.373 0.139346 115.303 0.452875L108.888 24.7339H108.679L103.623 0.487711C103.588 0.174183 103.414 0 103.1 0H101.705C101.322 0 101.182 0.174183 101.287 0.487711L107.075 26.6151C107.145 26.9635 107.354 27.1376 107.668 27.1376Z" fill="white"/>
<path d="M137.478 27.1376H150.553C150.867 27.1376 151.041 26.9983 151.041 26.6848V25.7093C151.041 25.3958 150.867 25.2216 150.553 25.2216H139.605C139.326 25.2216 139.186 25.1171 139.186 24.8733V14.6313C139.186 14.3875 139.326 14.2481 139.605 14.2481H149.367C149.681 14.2481 149.821 14.1088 149.821 13.7953V12.8198C149.821 12.5063 149.681 12.367 149.367 12.367H139.605C139.326 12.367 139.186 12.2276 139.186 11.9838V2.26437C139.186 2.02052 139.326 1.88117 139.605 1.88117H150.553C150.867 1.88117 151.041 1.74183 151.041 1.4283V0.452875C151.041 0.139346 150.867 0 150.553 0H137.478C137.199 0 137.06 0.174183 137.06 0.487711V26.6151C137.06 26.9635 137.199 27.1376 137.478 27.1376Z" fill="white"/>
<path d="M157.805 27.1376H159.025C159.339 27.1376 159.479 26.9635 159.479 26.6151V16.3732C159.479 16.1293 159.653 15.99 159.932 15.99H166.591L171.577 26.6151C171.717 26.9635 171.961 27.1376 172.344 27.1376H173.634C174.018 27.1376 174.123 26.9635 173.948 26.6151L168.927 15.99V15.8158C170.287 15.5371 171.403 14.8752 172.205 13.8649C173.007 12.8547 173.39 11.5657 173.39 9.99808V5.99188C173.39 4.14554 172.867 2.68241 171.787 1.60248C170.706 0.522548 169.276 0 167.428 0H157.805C157.526 0 157.387 0.174183 157.387 0.487711V26.6151C157.387 26.9635 157.526 27.1376 157.805 27.1376ZM159.479 2.26437C159.479 2.02052 159.653 1.88117 159.932 1.88117H167.219C168.509 1.88117 169.52 2.26437 170.218 2.99594C170.915 3.72751 171.298 4.73776 171.298 6.06155V10.0329C171.298 11.3567 170.915 12.367 170.218 13.0985C169.52 13.8301 168.509 14.1785 167.219 14.1785H159.932C159.653 14.1785 159.479 14.0391 159.479 13.7953V2.26437Z" fill="white"/>
<path d="M180.573 27.1376H181.794C182.107 27.1376 182.282 26.9635 182.282 26.6151V0.487711C182.282 0.174183 182.107 0 181.794 0H180.573C180.294 0 180.155 0.174183 180.155 0.487711V26.6151C180.155 26.9635 180.294 27.1376 180.573 27.1376Z" fill="white"/>
<path d="M190.092 27.1376H191.312C191.626 27.1376 191.765 26.9635 191.765 26.6151V4.56358H191.94L204.875 26.6848C205.084 26.9983 205.293 27.1376 205.538 27.1376H206.514C206.828 27.1376 207.002 26.9635 207.002 26.6151V0.487711C207.002 0.174183 206.828 0 206.514 0H205.328C205.015 0 204.875 0.174183 204.875 0.487711V22.5392H204.701L191.73 0.243856C191.73 0.243856 191.486 0 191.242 0H190.092C189.813 0 189.673 0.174183 189.673 0.487711V26.6151C189.673 26.9635 189.813 27.1376 190.092 27.1376Z" fill="white"/>
<path d="M219.624 27.1376H224.226C226.039 27.1376 227.503 26.6151 228.584 25.5352C229.63 24.4552 230.188 22.9921 230.188 21.1458V14.0391C230.188 13.4817 229.909 13.203 229.386 13.203H222.796C222.483 13.203 222.308 13.3424 222.308 13.6559V14.6313C222.308 14.9449 222.483 15.119 222.796 15.119H227.643C227.887 15.119 228.026 15.2236 228.026 15.4674V21.0412C228.026 22.3999 227.678 23.445 227.015 24.1417C226.353 24.8733 225.342 25.2216 224.052 25.2216H219.798C218.508 25.2216 217.497 24.8733 216.834 24.1417C216.137 23.4101 215.823 22.365 215.823 21.0412V6.06155C215.823 4.73776 216.137 3.72751 216.834 2.99594C217.497 2.26437 218.508 1.88117 219.798 1.88117H224.052C225.342 1.88117 226.353 2.26437 227.015 2.9611C227.678 3.69267 228.026 4.70293 228.026 6.06155V7.87305C228.026 8.22141 228.166 8.3956 228.48 8.3956H229.7C230.014 8.3956 230.188 8.22141 230.188 7.87305V5.99188C230.188 4.14554 229.63 2.68241 228.584 1.60248C227.503 0.522548 226.039 0 224.226 0H219.624C217.776 0 216.346 0.522548 215.3 1.60248C214.219 2.68241 213.696 4.14554 213.696 5.99188V21.1458C213.696 22.9921 214.219 24.4552 215.3 25.5352C216.346 26.6151 217.776 27.1376 219.624 27.1376Z" fill="white"/>
<path d="M245.843 1.88117H251.98C252.259 1.88117 252.398 2.02052 252.398 2.26437V26.6151C252.398 26.9635 252.572 27.1376 252.851 27.1376H254.106C254.385 27.1376 254.525 26.9635 254.525 26.6151V2.26437C254.525 2.02052 254.664 1.88117 254.943 1.88117H261.08C261.393 1.88117 261.568 1.74183 261.568 1.4283V0.452875C261.568 0.139346 261.393 0 261.08 0H245.843C245.529 0 245.355 0.139346 245.355 0.452875V1.4283C245.355 1.74183 245.529 1.88117 245.843 1.88117Z" fill="white"/>
<path d="M266.344 27.1376H267.565C267.878 27.1376 268.053 26.9635 268.053 26.6151V14.6662C268.053 14.4223 268.192 14.3178 268.471 14.3178H280.291C280.57 14.3178 280.709 14.4223 280.709 14.6662V26.6151C280.709 26.9635 280.849 27.1376 281.128 27.1376H282.348C282.662 27.1376 282.836 26.9635 282.836 26.6151V0.487711C282.836 0.174183 282.662 0 282.348 0H281.128C280.849 0 280.709 0.174183 280.709 0.487711V12.0186C280.709 12.2624 280.57 12.4018 280.291 12.4018H268.471C268.192 12.4018 268.053 12.2624 268.053 12.0186V0.487711C268.053 0.174183 267.878 0 267.565 0H266.344C266.065 0 265.926 0.174183 265.926 0.487711V26.6151C265.926 26.9635 266.065 27.1376 266.344 27.1376Z" fill="white"/>
<path d="M292.529 1.88117H303.477C303.826 1.88117 304 1.74183 304 1.4283V0.452875C304 0.139346 303.826 0 303.477 0H290.437C290.158 0 290.019 0.174183 290.019 0.487711V26.6151C290.019 26.9635 290.158 27.1376 290.437 27.1376H303.477C303.826 27.1376 304 26.9983 304 26.6848V25.7093C304 25.3958 303.826 25.2216 303.477 25.2216H292.529C292.25 25.2216 292.111 25.1171 292.111 24.8733V14.6313C292.111 14.3875 292.25 14.2481 292.529 14.2481H302.292C302.605 14.2481 302.78 14.1088 302.78 13.7953V12.8198C302.78 12.5063 302.605 12.367 302.292 12.367H292.529C292.25 12.367 292.111 12.2276 292.111 11.9838V2.26437C292.111 2.02052 292.25 1.88117 292.529 1.88117Z" fill="white"/>
<path d="M15.8989 120.395H17.1192C17.433 120.395 17.5725 120.221 17.5725 119.872V95.2081C17.5725 94.9643 17.712 94.8249 17.9909 94.8249H24.1971C24.5458 94.8249 24.7201 94.6856 24.7201 94.3721V93.3618C24.7201 93.0483 24.5458 92.9089 24.1971 92.9089H8.78618C8.43752 92.9089 8.26318 93.0483 8.26318 93.3618V94.3721C8.26318 94.6856 8.43752 94.8249 8.78618 94.8249H14.9924C15.2713 94.8249 15.4108 94.9643 15.4108 95.2081V119.872C15.4108 120.221 15.5851 120.395 15.8989 120.395Z" fill="white"/>
<path d="M44.071 107.784V119.872C44.071 120.221 44.2104 120.395 44.5242 120.395H45.7445C46.0583 120.395 46.2327 120.221 46.2327 119.872V93.4315C46.2327 93.0831 46.0583 92.9089 45.7445 92.9089H44.5242C44.2104 92.9089 44.071 93.0831 44.071 93.4315V105.102C44.071 105.346 43.9315 105.485 43.6526 105.485H31.6934C31.3796 105.485 31.2401 105.346 31.2401 105.102V93.4315C31.2401 93.0831 31.1007 92.9089 30.7869 92.9089H29.5317C29.2527 92.9089 29.1133 93.0831 29.1133 93.4315V119.872C29.1133 120.221 29.2527 120.395 29.5317 120.395H30.7869C31.1007 120.395 31.2401 120.221 31.2401 119.872V107.784C31.2401 107.54 31.3796 107.401 31.6934 107.401H43.6526C43.9315 107.401 44.071 107.54 44.071 107.784Z" fill="white"/>
<path d="M55.6466 119.872V109.491C55.6466 109.247 55.786 109.108 56.065 109.108H62.8291L67.8847 119.872C68.0241 120.221 68.2682 120.395 68.6517 120.395H69.9767C70.3253 120.395 70.4299 120.221 70.2556 119.872L65.1651 109.108V108.934C66.5598 108.655 67.6755 107.993 68.4774 106.983C69.3142 105.938 69.6977 104.649 69.6977 103.046V98.9705C69.6977 97.0893 69.1747 95.6262 68.0939 94.5462C67.013 93.4315 65.5138 92.9089 63.6658 92.9089H53.9381C53.6243 92.9089 53.4849 93.0831 53.4849 93.4315V119.872C53.4849 120.221 53.6243 120.395 53.9381 120.395H55.1584C55.4722 120.395 55.6466 120.221 55.6466 119.872ZM55.6466 95.2081C55.6466 94.9643 55.786 94.8249 56.065 94.8249H63.4567C64.7816 94.8249 65.7927 95.2081 66.49 95.9397C67.2222 96.6713 67.5709 97.7164 67.5709 99.075V103.081C67.5709 104.405 67.2222 105.45 66.49 106.182C65.7927 106.913 64.7816 107.262 63.4567 107.262H56.065C55.786 107.262 55.6466 107.157 55.6466 106.878V95.2081Z" fill="white"/>
<path d="M87.1661 120.395C89.0141 120.395 90.4784 119.838 91.5593 118.758C92.6053 117.678 93.1632 116.215 93.1632 114.333V98.9705C93.1632 97.0893 92.6053 95.6262 91.5593 94.5462C90.4784 93.4315 89.0141 92.9089 87.1661 92.9089H81.9013C80.0534 92.9089 78.589 93.4315 77.5081 94.5462C76.4273 95.6262 75.9043 97.0893 75.9043 98.9705V114.333C75.9043 116.215 76.4273 117.678 77.5081 118.758C78.589 119.838 80.0534 120.395 81.9013 120.395H87.1661ZM78.066 114.229V99.075C78.066 97.7164 78.3798 96.6713 79.0771 95.9397C79.7745 95.2081 80.7507 94.8249 82.0756 94.8249H86.9569C88.247 94.8249 89.2581 95.2081 89.9554 95.9397C90.6528 96.6364 91.0014 97.6815 91.0014 99.075V114.229C91.0014 115.588 90.6528 116.667 89.9554 117.364C89.2581 118.096 88.247 118.479 86.9569 118.479H82.0756C80.7507 118.479 79.7745 118.096 79.0771 117.364C78.3798 116.598 78.066 115.588 78.066 114.229Z" fill="white"/>
<path d="M116.07 92.9089H114.885C114.571 92.9089 114.397 93.0831 114.397 93.4315V114.229C114.397 115.588 114.048 116.667 113.351 117.364C112.653 118.096 111.642 118.479 110.352 118.479H105.924C104.634 118.479 103.623 118.096 102.96 117.364C102.263 116.598 101.914 115.588 101.914 114.229V93.4315C101.914 93.0831 101.775 92.9089 101.461 92.9089H100.206C99.9271 92.9089 99.7876 93.0831 99.7876 93.4315V114.333C99.7876 116.215 100.311 117.678 101.391 118.758C102.437 119.838 103.902 120.395 105.785 120.395H110.561C112.409 120.395 113.874 119.838 114.954 118.758C116 117.678 116.558 116.215 116.558 114.333V93.3618C116.558 93.0483 116.384 92.9089 116.07 92.9089Z" fill="white"/>
<path d="M138.141 101.409H139.396C139.71 101.409 139.849 101.235 139.849 100.886V98.9705C139.849 97.0893 139.326 95.6262 138.245 94.5462C137.165 93.4315 135.665 92.9089 133.817 92.9089H129.18C127.297 92.9089 125.868 93.4315 124.787 94.5462C123.706 95.6262 123.183 97.0893 123.183 98.9705V114.333C123.183 116.215 123.706 117.678 124.787 118.758C125.868 119.838 127.297 120.395 129.18 120.395H133.817C135.665 120.395 137.165 119.838 138.245 118.758C139.326 117.678 139.849 116.215 139.849 114.333V107.157C139.849 106.565 139.605 106.286 139.047 106.286H132.388C132.074 106.286 131.9 106.425 131.9 106.739V107.749C131.9 108.063 132.074 108.202 132.388 108.202H137.304C137.548 108.202 137.688 108.342 137.688 108.585V114.229C137.688 115.588 137.339 116.667 136.642 117.364C135.979 118.096 134.968 118.479 133.643 118.479H129.354C128.03 118.479 127.018 118.096 126.356 117.364C125.659 116.598 125.31 115.588 125.31 114.229V99.075C125.31 97.7164 125.659 96.6713 126.356 95.9397C127.018 95.2081 128.03 94.8249 129.354 94.8249H133.643C134.968 94.8249 135.979 95.2081 136.642 95.9397C137.339 96.6364 137.688 97.6815 137.688 99.075V100.886C137.688 101.235 137.827 101.409 138.141 101.409Z" fill="white"/>
<path d="M162.059 120.395H163.314C163.628 120.395 163.767 120.221 163.767 119.872V93.4315C163.767 93.0831 163.628 92.9089 163.314 92.9089H162.059C161.78 92.9089 161.64 93.0831 161.64 93.4315V105.102C161.64 105.346 161.501 105.485 161.222 105.485H149.228C148.949 105.485 148.81 105.346 148.81 105.102V93.4315C148.81 93.0831 148.635 92.9089 148.322 92.9089H147.101C146.787 92.9089 146.648 93.0831 146.648 93.4315V119.872C146.648 120.221 146.787 120.395 147.101 120.395H148.322C148.635 120.395 148.81 120.221 148.81 119.872V107.784C148.81 107.54 148.949 107.401 149.228 107.401H161.222C161.501 107.401 161.64 107.54 161.64 107.784V119.872C161.64 120.221 161.78 120.395 162.059 120.395Z" fill="white"/>
<path d="M185.036 94.8249H196.123C196.437 94.8249 196.611 94.6856 196.611 94.3721V93.3618C196.611 93.0483 196.437 92.9089 196.123 92.9089H182.909C182.595 92.9089 182.456 93.0831 182.456 93.4315V119.872C182.456 120.221 182.595 120.395 182.909 120.395H196.123C196.437 120.395 196.611 120.221 196.611 119.907V118.932C196.611 118.618 196.437 118.479 196.123 118.479H185.036C184.757 118.479 184.617 118.34 184.617 118.096V107.749C184.617 107.471 184.757 107.366 185.036 107.366H194.903C195.217 107.366 195.391 107.192 195.391 106.878V105.903C195.391 105.589 195.217 105.415 194.903 105.415H185.036C184.757 105.415 184.617 105.311 184.617 105.032V95.2081C184.617 94.9643 184.757 94.8249 185.036 94.8249Z" fill="white"/>
<path d="M211.674 105.868L219.065 93.4315C219.24 93.0831 219.135 92.9089 218.786 92.9089H217.357C217.078 92.9089 216.834 93.0831 216.66 93.4315L210.314 104.405H210.14L203.724 93.4315C203.585 93.0831 203.341 92.9089 202.957 92.9089H201.632C201.632 92.9089 201.388 92.9438 201.318 93.0483C201.249 93.1528 201.249 93.2921 201.318 93.4315L208.745 105.903L200.9 119.872C200.761 120.221 200.83 120.395 201.144 120.395H202.608C202.853 120.395 203.097 120.256 203.271 119.977L210.105 107.575H210.279L217.113 119.977C217.287 120.256 217.496 120.395 217.741 120.395H219.205C219.588 120.395 219.658 120.221 219.484 119.872L211.674 105.868Z" fill="white"/>
<path d="M224.609 93.4315V119.872C224.609 120.221 224.749 120.395 225.028 120.395H226.283C226.597 120.395 226.736 120.221 226.736 119.872V110.397C226.736 110.153 226.876 110.048 227.155 110.048H234.86C236.708 110.048 238.172 109.491 239.288 108.411C240.369 107.331 240.892 105.868 240.892 103.987V98.9705C240.892 97.0893 240.369 95.6262 239.288 94.5462C238.207 93.4663 236.708 92.9089 234.86 92.9089H225.028C224.749 92.9089 224.609 93.0831 224.609 93.4315ZM226.736 95.2081C226.736 94.9643 226.876 94.8249 227.155 94.8249H234.686C236.011 94.8249 237.022 95.2081 237.684 95.9397C238.382 96.6364 238.73 97.6815 238.73 99.075V103.882C238.73 105.241 238.382 106.251 237.684 106.983C237.022 107.714 236.011 108.098 234.686 108.098H227.155C226.876 108.098 226.736 107.958 226.736 107.749V95.2081Z" fill="white"/>
<path d="M249.574 94.8249H260.661C261.01 94.8249 261.184 94.6856 261.184 94.3721V93.3618C261.184 93.0483 261.01 92.9089 260.661 92.9089H247.447C247.168 92.9089 247.028 93.0831 247.028 93.4315V119.872C247.028 120.221 247.168 120.395 247.447 120.395H260.661C261.01 120.395 261.184 120.221 261.184 119.907V118.932C261.184 118.618 261.01 118.479 260.661 118.479H249.574C249.295 118.479 249.155 118.34 249.155 118.096V107.749C249.155 107.471 249.295 107.366 249.574 107.366H259.476C259.789 107.366 259.929 107.192 259.929 106.878V105.903C259.929 105.589 259.789 105.415 259.476 105.415H249.574C249.295 105.415 249.155 105.311 249.155 105.032V95.2081C249.155 94.9643 249.295 94.8249 249.574 94.8249Z" fill="white"/>
<path d="M284.057 120.395C284.44 120.395 284.545 120.221 284.37 119.872L279.28 109.108V108.934C280.674 108.655 281.755 107.993 282.592 106.983C283.394 105.938 283.812 104.649 283.812 103.046V98.9705C283.812 97.0893 283.255 95.6262 282.174 94.5462C281.093 93.4315 279.629 92.9089 277.781 92.9089H268.018C267.739 92.9089 267.6 93.0831 267.6 93.4315V119.872C267.6 120.221 267.739 120.395 268.018 120.395H269.273C269.587 120.395 269.726 120.221 269.726 119.872V109.491C269.726 109.247 269.866 109.108 270.145 109.108H276.909L281.965 119.872C282.104 120.221 282.348 120.395 282.732 120.395H284.057ZM270.145 107.262C269.866 107.262 269.726 107.157 269.726 106.878V95.2081C269.726 94.9643 269.866 94.8249 270.145 94.8249H277.571C278.861 94.8249 279.873 95.2081 280.605 95.9397C281.302 96.6713 281.651 97.7164 281.651 99.075V103.081C281.651 104.405 281.302 105.45 280.605 106.182C279.873 106.913 278.861 107.262 277.571 107.262H270.145Z" fill="white"/>
<path d="M303.477 92.9089H288.066C287.752 92.9089 287.578 93.0483 287.578 93.3618V94.3721C287.578 94.6856 287.752 94.8249 288.066 94.8249H294.272C294.551 94.8249 294.726 94.9643 294.726 95.2081V119.872C294.726 120.221 294.865 120.395 295.179 120.395H296.434C296.713 120.395 296.853 120.221 296.853 119.872V95.2081C296.853 94.9643 296.992 94.8249 297.271 94.8249H303.477C303.826 94.8249 304 94.6856 304 94.3721V93.3618C304 93.0483 303.826 92.9089 303.477 92.9089Z" fill="white"/>
<path d="M27.614 131.856H9.30918C8.61185 131.856 8.26318 132.205 8.26318 132.866V136.176C8.26318 136.838 8.61185 137.186 9.30918 137.186H14.8181C15.1667 137.186 15.3411 137.36 15.3411 137.709V161.955C15.3411 162.652 15.7246 163 16.4219 163H20.5013C21.1637 163 21.5124 162.652 21.5124 161.955V137.709C21.5124 137.36 21.6867 137.186 22.1051 137.186H27.614C28.2765 137.186 28.6252 136.838 28.6252 136.176V132.866C28.6252 132.205 28.2765 131.856 27.614 131.856Z" fill="white"/>
<path d="M49.1618 131.856H33.3324C32.6351 131.856 32.3213 132.205 32.3213 132.866V161.955C32.3213 162.652 32.6351 163 33.3324 163H49.1618C49.8242 163 50.138 162.652 50.138 161.955V158.68C50.138 157.984 49.8242 157.67 49.1618 157.67H39.0505C38.667 157.67 38.4578 157.496 38.4578 157.113V150.389C38.4578 150.041 38.667 149.867 39.0505 149.867H47.3138C48.0112 149.867 48.3598 149.518 48.3598 148.856V145.547C48.3598 144.885 48.0112 144.537 47.3138 144.537H39.0505C38.667 144.537 38.4578 144.363 38.4578 144.014V137.709C38.4578 137.36 38.667 137.186 39.0505 137.186H49.1618C49.8242 137.186 50.138 136.838 50.138 136.176V132.866C50.138 132.205 49.8242 131.856 49.1618 131.856Z" fill="white"/>
<path d="M68.3031 131.856H63.0383C60.4582 131.856 58.5057 132.553 57.111 133.877C55.7164 135.235 55.019 137.186 55.019 139.764V155.092C55.019 157.635 55.7164 159.586 57.111 160.945C58.5057 162.303 60.4582 163 63.0383 163H68.3031C70.8135 163 72.8009 162.303 74.1956 160.945C75.5902 159.551 76.2875 157.6 76.2875 155.092V152.828C76.2875 152.096 75.9389 151.748 75.2415 151.748H71.1622C70.4997 151.748 70.1511 152.096 70.1511 152.828V154.813C70.1511 155.824 69.9419 156.555 69.4886 157.008C69.0702 157.426 68.3031 157.67 67.292 157.67H63.9797C63.0034 157.67 62.2713 157.426 61.8529 157.008C61.3996 156.555 61.1904 155.824 61.1904 154.813V140.043C61.1904 138.998 61.3996 138.266 61.8529 137.848C62.2713 137.395 63.0034 137.186 63.9797 137.186H67.292C68.3031 137.186 69.0702 137.395 69.4886 137.848C69.9419 138.266 70.1511 138.998 70.1511 140.043V142.028C70.1511 142.725 70.4997 143.074 71.1622 143.074H75.2415C75.9389 143.074 76.2875 142.725 76.2875 142.028V139.764C76.2875 137.221 75.5902 135.305 74.1956 133.912C72.8009 132.553 70.8135 131.856 68.3031 131.856Z" fill="white"/>
<path d="M102.159 131.856H98.0443C97.3819 131.856 97.0332 132.205 97.0332 132.866V144.258C97.0332 144.606 96.8589 144.781 96.5102 144.781H88.3166C87.9331 144.781 87.7239 144.606 87.7239 144.258V132.866C87.7239 132.205 87.3752 131.856 86.7128 131.856H82.5985C81.9012 131.856 81.5874 132.205 81.5874 132.866V161.955C81.5874 162.652 81.9012 163 82.5985 163H86.7128C87.3752 163 87.7239 162.652 87.7239 161.955V150.633C87.7239 150.285 87.9331 150.111 88.3166 150.111H96.5102C96.8589 150.111 97.0332 150.285 97.0332 150.633V161.955C97.0332 162.652 97.3819 163 98.0443 163H102.159C102.856 163 103.17 162.652 103.17 161.955V132.866C103.17 132.205 102.856 131.856 102.159 131.856Z" fill="white"/>
<path d="M136.746 146.035C134.619 145.164 132.179 144.606 129.459 144.397C126.809 144.153 125.484 143.283 125.484 141.785V140.879C125.484 139.416 125.694 138.44 126.182 137.918C126.635 137.43 127.541 137.186 128.866 137.186H130.749C132.039 137.186 132.946 137.395 133.399 137.848C133.887 138.301 134.131 139.172 134.131 140.426V140.705C134.131 141.401 134.48 141.75 135.177 141.75H139.291C139.954 141.75 140.303 141.401 140.303 140.705V139.799C140.303 137.291 139.57 135.34 138.176 133.946C136.746 132.553 134.759 131.856 132.214 131.856H127.367C124.857 131.856 122.869 132.553 121.44 133.946C120.01 135.34 119.313 137.291 119.313 139.799V141.506C119.313 143.492 119.697 145.129 120.464 146.418C121.231 147.672 122.172 148.543 123.288 148.961C124.403 149.414 125.624 149.762 126.949 150.041C128.239 150.32 129.459 150.494 130.61 150.598C131.725 150.703 132.667 150.981 133.434 151.504C134.201 151.992 134.584 152.688 134.584 153.629V154.221C134.584 155.545 134.34 156.451 133.817 156.938C133.329 157.426 132.458 157.67 131.202 157.67H128.901C127.611 157.67 126.74 157.426 126.251 156.973C125.763 156.52 125.519 155.684 125.519 154.465V154.082C125.519 153.385 125.171 153.072 124.508 153.072H120.394C119.697 153.072 119.383 153.385 119.383 154.082V155.057C119.383 157.566 120.08 159.516 121.51 160.91C122.904 162.303 124.892 163 127.402 163H132.702C135.212 163 137.165 162.303 138.594 160.91C140.024 159.516 140.721 157.566 140.721 155.057V153.385C140.721 151.469 140.337 149.867 139.605 148.647C138.838 147.393 137.897 146.522 136.746 146.035Z" fill="white"/>
<path d="M163.105 131.856H147.276C146.578 131.856 146.265 132.205 146.265 132.866V161.955C146.265 162.652 146.578 163 147.276 163H163.105C163.768 163 164.081 162.652 164.081 161.955V158.68C164.081 157.984 163.768 157.67 163.105 157.67H152.994C152.61 157.67 152.401 157.496 152.401 157.113V150.389C152.401 150.041 152.61 149.867 152.994 149.867H161.257C161.955 149.867 162.303 149.518 162.303 148.856V145.547C162.303 144.885 161.955 144.537 161.257 144.537H152.994C152.61 144.537 152.401 144.363 152.401 144.014V137.709C152.401 137.36 152.61 137.186 152.994 137.186H163.105C163.768 137.186 164.081 136.838 164.081 136.176V132.866C164.081 132.205 163.768 131.856 163.105 131.856Z" fill="white"/>
<path d="M185.733 151.016V150.842C188.627 149.623 190.057 147.219 190.057 143.561V139.799C190.057 137.291 189.325 135.34 187.93 133.946C186.5 132.553 184.513 131.856 182.003 131.856H170.462C169.799 131.856 169.451 132.205 169.451 132.866V161.955C169.451 162.652 169.799 163 170.462 163H174.576C175.273 163 175.622 162.652 175.622 161.955V152.061C175.622 151.678 175.796 151.504 176.18 151.504H179.422L184.269 161.955C184.443 162.373 184.652 162.652 184.896 162.791C185.175 162.93 185.594 163 186.187 163H190.092C190.928 163 191.207 162.582 190.928 161.816L185.733 151.016ZM183.885 143.805C183.885 144.781 183.641 145.477 183.153 145.93C182.7 146.348 181.933 146.557 180.887 146.557H176.145C175.796 146.557 175.622 146.383 175.622 146.035V137.709C175.622 137.36 175.796 137.186 176.145 137.186H180.887C181.933 137.186 182.7 137.395 183.153 137.848C183.641 138.301 183.885 139.033 183.885 140.043V143.805Z" fill="white"/>
<path d="M216.346 131.856H211.813C211.151 131.856 210.767 132.205 210.628 132.866L205.537 156.695H205.363L200.272 132.866C200.133 132.205 199.749 131.856 199.122 131.856H194.554C193.683 131.856 193.369 132.239 193.578 132.971L201.109 161.955C201.214 162.652 201.632 163 202.295 163H208.64C209.268 163 209.652 162.652 209.826 161.955L217.322 132.971C217.496 132.239 217.148 131.856 216.346 131.856Z" fill="white"/>
<path d="M226.562 131.856H222.448C221.785 131.856 221.437 132.205 221.437 132.866V161.955C221.437 162.652 221.785 163 222.448 163H226.562C227.259 163 227.608 162.652 227.608 161.955V132.866C227.608 132.205 227.259 131.856 226.562 131.856Z" fill="white"/>
<path d="M246.924 131.856H241.659C239.079 131.856 237.126 132.553 235.732 133.877C234.337 135.235 233.64 137.186 233.64 139.764V155.092C233.64 157.635 234.337 159.586 235.732 160.945C237.126 162.303 239.079 163 241.659 163H246.924C249.434 163 251.422 162.303 252.816 160.945C254.211 159.551 254.908 157.6 254.908 155.092V152.828C254.908 152.096 254.559 151.748 253.862 151.748H249.783C249.12 151.748 248.772 152.096 248.772 152.828V154.813C248.772 155.824 248.562 156.555 248.109 157.008C247.691 157.426 246.924 157.67 245.913 157.67H242.6C241.624 157.67 240.892 157.426 240.439 157.008C240.02 156.555 239.811 155.824 239.811 154.813V140.043C239.811 138.998 240.02 138.266 240.439 137.848C240.892 137.395 241.624 137.186 242.6 137.186H245.913C246.924 137.186 247.691 137.395 248.109 137.848C248.562 138.266 248.772 138.998 248.772 140.043V142.028C248.772 142.725 249.12 143.074 249.783 143.074H253.862C254.559 143.074 254.908 142.725 254.908 142.028V139.764C254.908 137.221 254.211 135.305 252.816 133.912C251.422 132.553 249.434 131.856 246.924 131.856Z" fill="white"/>
<path d="M277.048 131.856H261.219C260.522 131.856 260.208 132.205 260.208 132.866V161.955C260.208 162.652 260.522 163 261.219 163H277.048C277.711 163 278.025 162.652 278.025 161.955V158.68C278.025 157.984 277.711 157.67 277.048 157.67H266.937C266.554 157.67 266.344 157.496 266.344 157.113V150.389C266.344 150.041 266.554 149.867 266.937 149.867H275.201C275.898 149.867 276.247 149.518 276.247 148.856V145.547C276.247 144.885 275.898 144.537 275.201 144.537H266.937C266.554 144.537 266.344 144.363 266.344 144.014V137.709C266.344 137.36 266.554 137.186 266.937 137.186H277.048C277.711 137.186 278.025 136.838 278.025 136.176V132.866C278.025 132.205 277.711 131.856 277.048 131.856Z" fill="white"/>
<path d="M300.025 146.035C297.898 145.164 295.457 144.606 292.703 144.397C290.053 144.153 288.728 143.283 288.728 141.785V140.879C288.728 139.416 288.972 138.44 289.426 137.918C289.914 137.43 290.785 137.186 292.11 137.186H294.028C295.318 137.186 296.19 137.395 296.678 137.848C297.166 138.301 297.41 139.172 297.41 140.426V140.705C297.41 141.401 297.759 141.75 298.421 141.75H302.535C303.233 141.75 303.546 141.401 303.546 140.705V139.799C303.546 137.291 302.849 135.34 301.42 133.946C299.99 132.553 298.003 131.856 295.457 131.856H290.611C288.101 131.856 286.148 132.553 284.719 133.946C283.289 135.34 282.592 137.291 282.592 139.799V141.506C282.592 143.492 282.975 145.129 283.708 146.418C284.475 147.672 285.416 148.543 286.567 148.961C287.682 149.414 288.903 149.762 290.228 150.041C291.518 150.32 292.738 150.494 293.854 150.598C295.004 150.703 295.946 150.981 296.713 151.504C297.445 151.992 297.828 152.688 297.828 153.629V154.221C297.828 155.545 297.584 156.451 297.096 156.938C296.573 157.426 295.702 157.67 294.446 157.67H292.18C290.89 157.67 289.983 157.426 289.495 156.973C289.007 156.52 288.798 155.684 288.798 154.465V154.082C288.798 153.385 288.449 153.072 287.752 153.072H283.638C282.975 153.072 282.627 153.385 282.627 154.082V155.057C282.627 157.566 283.324 159.516 284.753 160.91C286.183 162.303 288.136 163 290.681 163H295.946C298.456 163 300.443 162.303 301.873 160.91C303.268 159.516 304 157.566 304 155.057V153.385C304 151.469 303.616 149.867 302.849 148.647C302.082 147.393 301.141 146.522 300.025 146.035Z" fill="white"/>
<path d="M9.69271 81.4477H15.1319C15.7246 81.4477 16.1081 81.3432 16.2825 81.1342C16.4568 80.9251 16.5614 80.5768 16.5614 80.0542V73.0869H8.26318V80.0542C8.26318 80.96 8.75131 81.4477 9.69271 81.4477Z" fill="white"/>
<path d="M16.5614 48.3879H16.8054L23.7439 70.7878C24.0228 71.6587 24.5807 72.1116 25.4174 72.1116H31.0309C31.8677 72.1116 32.4256 71.6587 32.6697 70.7878L39.4686 48.4576H39.7475V80.0543C39.7475 80.9601 40.2008 81.4478 41.1422 81.4478H46.6162C47.5576 81.4478 48.0109 80.9601 48.0109 80.0543V39.9923C48.0109 39.0518 47.5576 38.5989 46.6162 38.5989H36.749C36.0517 38.5989 35.6333 38.9124 35.4938 39.5395L28.3462 63.0541H27.9627L20.8848 39.5395C20.6407 38.9124 20.2224 38.5989 19.6296 38.5989H9.69271C8.75131 38.5989 8.26318 39.0518 8.26318 39.9923V64.8308H16.5614V48.3879Z" fill="white"/>
<path d="M67.0132 81.4478H74.4746C77.9961 81.4478 80.7157 80.5072 82.6333 78.626C84.551 76.7797 85.4924 74.0973 85.4924 70.5788V49.4679C85.4924 45.9494 84.551 43.267 82.6333 41.3858C80.7157 39.5395 77.9961 38.5989 74.4746 38.5989H67.0132C63.5265 38.5989 60.807 39.5395 58.8893 41.3858C56.9717 43.267 56.0303 45.9494 56.0303 49.4679V70.5788C56.0303 74.0973 56.9717 76.7797 58.8893 78.626C60.807 80.5072 63.5265 81.4478 67.0132 81.4478ZM64.5028 49.8511C64.5028 48.4228 64.7817 47.4125 65.3396 46.8203C65.9323 46.2281 66.9435 45.9145 68.373 45.9145H73.0799C74.5095 45.9145 75.5206 46.2281 76.1133 46.8203C76.706 47.4125 77.0198 48.4228 77.0198 49.8511V70.1956C77.0198 71.589 76.706 72.5993 76.1133 73.2264C75.5206 73.8186 74.5095 74.0973 73.0799 74.0973H68.373C66.9435 74.0973 65.9323 73.8186 65.3396 73.2264C64.7817 72.5993 64.5028 71.589 64.5028 70.1956V49.8511Z" fill="white"/>
<path d="M90.2343 40.1317L100.555 80.0543C100.729 80.9601 101.287 81.4478 102.228 81.4478H110.945C111.817 81.4478 112.34 80.9601 112.549 80.0543L122.904 40.1317C123.113 39.1214 122.66 38.5989 121.579 38.5989H115.303C114.397 38.5989 113.874 39.0518 113.699 39.9923L106.691 72.7735H106.412L99.439 39.9923C99.2647 39.0518 98.7068 38.5989 97.8351 38.5989H91.5592C90.3737 38.5989 89.9205 39.1214 90.2343 40.1317Z" fill="white"/>
<path d="M128.239 39.9923V80.0543C128.239 80.9601 128.692 81.4478 129.633 81.4478H151.425C152.331 81.4478 152.785 80.9601 152.785 80.0543V75.4907C152.785 74.585 152.331 74.0973 151.425 74.0973H137.513C136.955 74.0973 136.711 73.8534 136.711 73.3657V64.0992C136.711 63.6115 136.955 63.3676 137.513 63.3676H148.915C149.821 63.3676 150.309 62.9148 150.309 61.9742V57.4454C150.309 56.5048 149.821 56.052 148.915 56.052H137.513C136.955 56.052 136.711 55.8081 136.711 55.3204V46.6461C136.711 46.1584 136.955 45.9145 137.513 45.9145H151.425C152.331 45.9145 152.785 45.4617 152.785 44.5211V39.9923C152.785 39.0518 152.331 38.5989 151.425 38.5989H129.633C128.692 38.5989 128.239 39.0518 128.239 39.9923Z" fill="white"/>
<path d="M177.296 72.1116H182.909C183.746 72.1116 184.304 71.6587 184.583 70.7878L191.382 48.4576H191.626V80.0543C191.626 80.9601 192.114 81.4478 193.055 81.4478H198.494C199.436 81.4478 199.924 80.9601 199.924 80.0543V39.9923C199.924 39.0518 199.436 38.5989 198.494 38.5989H188.627C187.93 38.5989 187.512 38.9124 187.372 39.5395L180.224 63.0541H179.841L172.763 39.5395C172.554 38.9124 172.135 38.5989 171.508 38.5989H161.571C160.63 38.5989 160.176 39.0518 160.176 39.9923V80.0543C160.176 80.9601 160.63 81.4478 161.571 81.4478H167.045C167.603 81.4478 167.986 81.3433 168.161 81.1343C168.335 80.9252 168.44 80.5769 168.44 80.0543V48.3879H168.719L175.622 70.7878C175.901 71.6587 176.459 72.1116 177.296 72.1116Z" fill="white"/>
<path d="M209.965 81.4478H231.792C232.663 81.4478 233.117 80.9601 233.117 80.0543V75.4907C233.117 74.585 232.663 74.0973 231.792 74.0973H217.845C217.322 74.0973 217.043 73.8534 217.043 73.3657V64.0992C217.043 63.6115 217.322 63.3676 217.845 63.3676H229.247C230.188 63.3676 230.641 62.9148 230.641 61.9742V57.4454C230.641 56.5048 230.188 56.052 229.247 56.052H217.845C217.322 56.052 217.043 55.8081 217.043 55.3204V46.6461C217.043 46.1584 217.322 45.9145 217.845 45.9145H231.792C232.663 45.9145 233.117 45.4617 233.117 44.5211V39.9923C233.117 39.0518 232.663 38.5989 231.792 38.5989H209.965C209.059 38.5989 208.571 39.0518 208.571 39.9923V80.0543C208.571 80.9601 209.059 81.4478 209.965 81.4478Z" fill="white"/>
<path d="M241.903 81.4478H247.447C248.388 81.4478 248.841 80.9601 248.841 80.0543V55.3204H249.12L262.439 80.0891C262.892 80.9949 263.625 81.4478 264.601 81.4478H269.447C270.389 81.4478 270.842 80.9601 270.842 80.0543V39.9923C270.842 39.0518 270.389 38.5989 269.447 38.5989H263.904C262.997 38.5989 262.509 39.0518 262.509 39.9923V64.7959H262.265L248.772 39.5395C248.458 38.9124 247.865 38.5989 246.924 38.5989H241.903C240.996 38.5989 240.508 39.0518 240.508 39.9923V80.0543C240.508 80.9601 240.996 81.4478 241.903 81.4478Z" fill="white"/>
<path d="M302.605 38.5989H277.397C276.456 38.5989 276.002 39.0518 276.002 39.9923V44.5211C276.002 45.4617 276.456 45.9145 277.397 45.9145H284.998C285.486 45.9145 285.73 46.1584 285.73 46.6461V80.0543C285.73 80.9601 286.218 81.4478 287.195 81.4478H292.808C293.715 81.4478 294.203 80.9601 294.203 80.0543V46.6461C294.203 46.1584 294.447 45.9145 295.005 45.9145H302.605C303.512 45.9145 304 45.4617 304 44.5211V39.9923C304 39.0518 303.512 38.5989 302.605 38.5989Z" fill="white"/>
<path d="M8.26333 64.8307H0V73.0869H8.26333V64.8307Z" fill="white"/>
</g>
<defs>
<clipPath id="clip0_2026_70">
<rect width="304" height="163" fill="white"/>
</clipPath>
</defs>
</svg>
