<svg width="520" height="227" viewBox="0 0 520 227" fill="none" xmlns="http://www.w3.org/2000/svg">
<path d="M12.428 211.363C10.624 211.363 9.084 211.011 7.808 210.307C6.554 209.603 5.586 208.558 4.904 207.172C4.244 205.786 3.914 204.081 3.914 202.057C3.914 200.693 4.068 199.318 4.376 197.932C4.684 196.546 5.157 195.226 5.795 193.972C6.455 192.718 7.269 191.607 8.237 190.639C9.227 189.649 10.382 188.879 11.702 188.329C13.044 187.757 14.551 187.471 16.223 187.471C18.049 187.471 19.6 187.823 20.876 188.527C22.152 189.231 23.12 190.276 23.78 191.662C24.44 193.026 24.77 194.72 24.77 196.744C24.77 198.064 24.616 199.417 24.308 200.803C24 202.189 23.527 203.509 22.889 204.763C22.251 206.017 21.437 207.15 20.447 208.162C19.479 209.152 18.324 209.933 16.982 210.505C15.662 211.077 14.144 211.363 12.428 211.363ZM12.791 208.195C13.869 208.195 14.826 207.953 15.662 207.469C16.498 206.963 17.224 206.303 17.84 205.489C18.456 204.653 18.973 203.729 19.391 202.717C19.809 201.705 20.117 200.671 20.315 199.615C20.513 198.559 20.612 197.569 20.612 196.645C20.612 195.237 20.403 194.093 19.985 193.213C19.589 192.333 19.039 191.684 18.335 191.266C17.631 190.848 16.806 190.639 15.86 190.639C14.804 190.639 13.858 190.881 13.022 191.365C12.186 191.849 11.46 192.509 10.844 193.345C10.228 194.159 9.711 195.072 9.293 196.084C8.897 197.074 8.6 198.097 8.402 199.153C8.204 200.187 8.105 201.177 8.105 202.123C8.105 203.531 8.303 204.686 8.699 205.588C9.095 206.468 9.645 207.128 10.349 207.568C11.075 207.986 11.889 208.195 12.791 208.195ZM31.9266 211.363C30.9586 211.385 30.1336 211.154 29.4516 210.67C28.7696 210.164 28.2856 209.471 27.9996 208.591C27.7356 207.689 27.6916 206.622 27.8676 205.39L29.4186 195.589L29.7486 196.348L27.0426 195.622L27.3726 193.543L33.6756 193.312L31.8936 204.499C31.7836 205.269 31.7616 205.94 31.8276 206.512C31.9156 207.062 32.1026 207.491 32.3886 207.799C32.6966 208.107 33.1036 208.261 33.6096 208.261C34.1376 208.261 34.6766 208.118 35.2266 207.832C35.7766 207.524 36.3046 207.062 36.8106 206.446C37.3386 205.808 37.8006 205.016 38.1966 204.07C38.6146 203.124 38.9226 202.002 39.1206 200.704L40.2426 193.444H44.1366L41.7276 208.822L41.2326 208.096L44.1696 208.921L43.8396 210.967L37.8666 211.132L38.9226 205.159L40.1106 203.113C39.6486 205.049 38.9556 206.622 38.0316 207.832C37.1296 209.042 36.1396 209.933 35.0616 210.505C34.0056 211.077 32.9606 211.363 31.9266 211.363ZM47.3807 211L50.0207 194.401L51.4067 196.843L47.4137 195.622L47.7437 193.543L53.8817 193.312L52.6607 199.219L51.4397 201.331C51.8577 199.527 52.4957 198.02 53.3537 196.81C54.2337 195.578 55.2127 194.654 56.2907 194.038C57.3907 193.4 58.4577 193.081 59.4917 193.081C60.0637 193.081 60.5477 193.158 60.9437 193.312L59.9867 198.856H57.6107V195.754L58.0727 196.15C57.5007 196.084 56.9177 196.227 56.3237 196.579C55.7297 196.909 55.1687 197.404 54.6407 198.064C54.1347 198.724 53.6837 199.538 53.2877 200.506C52.9137 201.452 52.6277 202.53 52.4297 203.74L51.2747 211H47.3807ZM73.5636 211.033L70.0656 190.111L70.9236 190.837L67.9536 190.078L68.2836 187.999L77.4576 187.834L77.1936 189.913L73.8936 190.771L74.5206 189.748L76.8306 207.403H76.2696L84.7176 189.979L84.9156 190.804L81.9786 190.078L82.3086 187.999L90.6906 187.834L90.3936 189.913L87.2916 190.738L88.3806 190.012L77.7876 211.033H73.5636ZM94.5093 211.363C93.2773 211.363 92.1553 211.121 91.1433 210.637C90.1533 210.131 89.3613 209.35 88.7673 208.294C88.1953 207.238 87.9093 205.863 87.9093 204.169C87.9093 202.761 88.1293 201.397 88.5693 200.077C89.0093 198.757 89.6473 197.569 90.4833 196.513C91.3193 195.457 92.3313 194.621 93.5193 194.005C94.7293 193.389 96.0933 193.081 97.6113 193.081C99.3933 193.081 100.779 193.488 101.769 194.302C102.781 195.116 103.287 196.183 103.287 197.503C103.287 198.515 102.979 199.417 102.363 200.209C101.769 200.979 100.955 201.639 99.9213 202.189C98.8873 202.717 97.7323 203.113 96.4563 203.377C95.1803 203.641 93.8603 203.773 92.4963 203.773C92.2763 203.773 92.0673 203.773 91.8693 203.773C91.6713 203.773 91.4843 203.762 91.3083 203.74L91.5393 201.133C91.7813 201.155 92.0233 201.177 92.2653 201.199C92.5293 201.221 92.7933 201.232 93.0573 201.232C93.8273 201.232 94.5863 201.166 95.3343 201.034C96.1043 200.88 96.7973 200.671 97.4133 200.407C98.0293 200.121 98.5243 199.769 98.8983 199.351C99.2723 198.933 99.4593 198.449 99.4593 197.899C99.4593 197.305 99.2503 196.821 98.8323 196.447C98.4143 196.073 97.8313 195.886 97.0833 195.886C96.2473 195.886 95.4883 196.139 94.8063 196.645C94.1463 197.129 93.5853 197.778 93.1233 198.592C92.6833 199.406 92.3423 200.297 92.1003 201.265C91.8583 202.211 91.7373 203.157 91.7373 204.103C91.7373 205.643 92.0563 206.765 92.6943 207.469C93.3543 208.173 94.2453 208.525 95.3673 208.525C96.1153 208.525 96.9073 208.393 97.7433 208.129C98.6013 207.865 99.4703 207.491 100.35 207.007L101.34 209.284C100.218 209.966 99.0743 210.483 97.9083 210.835C96.7423 211.187 95.6093 211.363 94.5093 211.363ZM109.844 218.953C108.81 218.953 107.765 218.843 106.709 218.623C105.675 218.425 104.685 218.172 103.739 217.864L104.531 215.059C105.455 215.389 106.368 215.631 107.27 215.785C108.172 215.961 108.986 216.049 109.712 216.049C110.724 216.049 111.56 215.895 112.22 215.587C112.902 215.301 113.452 214.916 113.87 214.432C114.288 213.948 114.607 213.398 114.827 212.782C115.047 212.188 115.212 211.594 115.322 211L116.213 205.126L117.5 203.113C117.082 204.939 116.433 206.468 115.553 207.7C114.673 208.91 113.694 209.823 112.616 210.439C111.538 211.055 110.504 211.363 109.514 211.363C108.656 211.363 107.864 211.132 107.138 210.67C106.412 210.208 105.829 209.504 105.389 208.558C104.971 207.59 104.762 206.336 104.762 204.796C104.762 203.19 105.004 201.683 105.488 200.275C105.994 198.845 106.698 197.591 107.6 196.513C108.502 195.435 109.558 194.599 110.768 194.005C111.978 193.389 113.287 193.081 114.695 193.081C115.597 193.081 116.521 193.235 117.467 193.543C118.435 193.829 119.403 194.302 120.371 194.962L118.688 194.566L119.447 193.444H121.559L118.82 210.934C118.578 212.43 118.171 213.695 117.599 214.729C117.049 215.763 116.367 216.588 115.553 217.204C114.761 217.82 113.87 218.26 112.88 218.524C111.912 218.81 110.9 218.953 109.844 218.953ZM111.065 208.195C111.571 208.195 112.099 208.041 112.649 207.733C113.221 207.403 113.76 206.919 114.266 206.281C114.772 205.621 115.223 204.818 115.619 203.872C116.037 202.926 116.345 201.815 116.543 200.539L117.302 195.952L117.929 197.239C117.357 196.821 116.796 196.524 116.246 196.348C115.696 196.15 115.146 196.051 114.596 196.051C113.738 196.051 112.946 196.282 112.22 196.744C111.516 197.184 110.9 197.8 110.372 198.592C109.844 199.362 109.437 200.242 109.151 201.232C108.865 202.222 108.722 203.256 108.722 204.334C108.722 205.676 108.942 206.655 109.382 207.271C109.822 207.887 110.383 208.195 111.065 208.195ZM128.463 211.363C127.605 211.363 126.813 211.132 126.087 210.67C125.361 210.208 124.778 209.504 124.338 208.558C123.92 207.59 123.711 206.336 123.711 204.796C123.711 203.168 123.953 201.65 124.437 200.242C124.943 198.834 125.647 197.591 126.549 196.513C127.451 195.435 128.507 194.588 129.717 193.972C130.927 193.356 132.236 193.048 133.644 193.048C134.546 193.048 135.47 193.202 136.416 193.51C137.384 193.796 138.352 194.28 139.32 194.962L137.571 194.632L138.396 193.444H140.508L137.868 210.109L136.515 207.601L140.541 208.822L140.211 210.967L134.271 211.165L135.294 205.126L136.416 203.113C136.02 204.939 135.371 206.468 134.469 207.7C133.589 208.91 132.61 209.823 131.532 210.439C130.476 211.055 129.453 211.363 128.463 211.363ZM130.014 208.195C130.52 208.195 131.048 208.041 131.598 207.733C132.17 207.403 132.709 206.919 133.215 206.281C133.721 205.621 134.172 204.818 134.568 203.872C134.986 202.926 135.294 201.815 135.492 200.539L136.251 195.952L136.878 197.239C136.306 196.821 135.745 196.524 135.195 196.348C134.645 196.15 134.095 196.051 133.545 196.051C132.687 196.051 131.895 196.282 131.169 196.744C130.465 197.184 129.849 197.8 129.321 198.592C128.793 199.362 128.386 200.242 128.1 201.232C127.814 202.222 127.671 203.256 127.671 204.334C127.671 205.676 127.891 206.655 128.331 207.271C128.771 207.887 129.332 208.195 130.014 208.195ZM154.199 211.132L156.014 199.945C156.146 199.175 156.168 198.515 156.08 197.965C155.992 197.393 155.794 196.953 155.486 196.645C155.2 196.337 154.793 196.183 154.265 196.183C153.759 196.183 153.22 196.337 152.648 196.645C152.098 196.953 151.559 197.415 151.031 198.031C150.525 198.647 150.074 199.428 149.678 200.374C149.282 201.32 148.985 202.442 148.787 203.74L147.632 211H143.738L146.378 194.401L147.764 196.843L143.771 195.622L144.101 193.543L150.239 193.312L149.018 199.219L147.764 201.298C148.27 199.362 148.974 197.789 149.876 196.579C150.8 195.369 151.79 194.489 152.846 193.939C153.924 193.367 154.947 193.081 155.915 193.081C156.927 193.081 157.774 193.323 158.456 193.807C159.138 194.291 159.622 194.984 159.908 195.886C160.194 196.766 160.227 197.833 160.007 199.087L158.456 208.888L156.773 207.601L160.898 208.822L160.568 210.967L154.199 211.132ZM176.109 211.033L172.611 190.111L173.469 190.837L170.499 190.078L170.829 187.999L180.003 187.834L179.739 189.913L176.439 190.771L177.066 189.748L179.376 207.403H178.815L187.263 189.979L187.461 190.804L184.524 190.078L184.854 187.999L193.236 187.834L192.939 189.913L189.837 190.738L190.926 190.012L180.333 211.033H176.109ZM200.156 193.081C201.454 193.081 202.598 193.323 203.588 193.807C204.578 194.291 205.348 195.061 205.898 196.117C206.448 197.151 206.723 198.537 206.723 200.275C206.723 201.639 206.525 202.981 206.129 204.301C205.733 205.621 205.139 206.82 204.347 207.898C203.555 208.954 202.554 209.801 201.344 210.439C200.134 211.055 198.704 211.363 197.054 211.363C195.756 211.363 194.612 211.121 193.622 210.637C192.632 210.153 191.862 209.383 191.312 208.327C190.762 207.271 190.487 205.896 190.487 204.202C190.487 202.816 190.685 201.474 191.081 200.176C191.477 198.856 192.071 197.668 192.863 196.612C193.655 195.534 194.656 194.676 195.866 194.038C197.076 193.4 198.506 193.081 200.156 193.081ZM199.628 195.952C198.704 195.952 197.912 196.227 197.252 196.777C196.592 197.327 196.053 198.02 195.635 198.856C195.239 199.692 194.942 200.594 194.744 201.562C194.546 202.508 194.447 203.388 194.447 204.202C194.447 205.544 194.7 206.6 195.206 207.37C195.712 208.118 196.504 208.492 197.582 208.492C198.484 208.492 199.265 208.217 199.925 207.667C200.585 207.117 201.124 206.424 201.542 205.588C201.96 204.73 202.268 203.828 202.466 202.882C202.664 201.914 202.763 201.023 202.763 200.209C202.763 198.867 202.51 197.822 202.004 197.074C201.498 196.326 200.706 195.952 199.628 195.952ZM208.888 211.132L212.815 186.481L214.168 188.89L210.175 187.768L210.505 185.623L216.874 185.392L212.947 210.076L211.528 207.601L215.62 208.822L215.257 210.967L208.888 211.132ZM223.578 211.363C222.61 211.385 221.785 211.154 221.103 210.67C220.421 210.164 219.937 209.471 219.651 208.591C219.387 207.689 219.343 206.622 219.519 205.39L221.07 195.589L221.4 196.348L218.694 195.622L219.024 193.543L225.327 193.312L223.545 204.499C223.435 205.269 223.413 205.94 223.479 206.512C223.567 207.062 223.754 207.491 224.04 207.799C224.348 208.107 224.755 208.261 225.261 208.261C225.789 208.261 226.328 208.118 226.878 207.832C227.428 207.524 227.956 207.062 228.462 206.446C228.99 205.808 229.452 205.016 229.848 204.07C230.266 203.124 230.574 202.002 230.772 200.704L231.894 193.444H235.788L233.379 208.822L232.884 208.096L235.821 208.921L235.491 210.967L229.518 211.132L230.574 205.159L231.762 203.113C231.3 205.049 230.607 206.622 229.683 207.832C228.781 209.042 227.791 209.933 226.713 210.505C225.657 211.077 224.612 211.363 223.578 211.363ZM249.493 211.132L251.308 199.945C251.44 199.175 251.462 198.515 251.374 197.965C251.286 197.393 251.088 196.953 250.78 196.645C250.494 196.337 250.087 196.183 249.559 196.183C249.053 196.183 248.514 196.337 247.942 196.645C247.392 196.953 246.853 197.415 246.325 198.031C245.819 198.647 245.368 199.428 244.972 200.374C244.576 201.32 244.279 202.442 244.081 203.74L242.926 211H239.032L241.672 194.401L243.058 196.843L239.065 195.622L239.395 193.543L245.533 193.312L244.312 199.219L243.058 201.298C243.564 199.362 244.268 197.789 245.17 196.579C246.094 195.369 247.084 194.489 248.14 193.939C249.218 193.367 250.241 193.081 251.209 193.081C252.221 193.081 253.068 193.323 253.75 193.807C254.432 194.291 254.916 194.984 255.202 195.886C255.488 196.766 255.521 197.833 255.301 199.087L253.75 208.888L252.067 207.601L256.192 208.822L255.862 210.967L249.493 211.132ZM268.675 210.208C267.817 210.582 266.981 210.868 266.167 211.066C265.375 211.264 264.638 211.363 263.956 211.363C262.768 211.363 261.8 211.044 261.052 210.406C260.326 209.768 259.963 208.767 259.963 207.403C259.963 207.183 259.963 206.974 259.963 206.776C259.985 206.578 260.018 206.358 260.062 206.116L261.712 195.589L262.108 196.15H259.006L259.336 193.972L262.702 193.279L261.976 194.005L262.702 189.55L266.662 188.89L265.87 194.005L265.54 193.444H270.424L269.995 196.15H265.045L265.606 195.589L263.956 205.918C263.934 206.006 263.912 206.127 263.89 206.281C263.89 206.413 263.89 206.556 263.89 206.71C263.89 207.304 264.022 207.733 264.286 207.997C264.55 208.239 264.913 208.36 265.375 208.36C265.705 208.36 266.079 208.305 266.497 208.195C266.915 208.063 267.366 207.887 267.85 207.667L268.675 210.208ZM277.234 211.363C276.002 211.363 274.88 211.121 273.868 210.637C272.878 210.131 272.086 209.35 271.492 208.294C270.92 207.238 270.634 205.863 270.634 204.169C270.634 202.761 270.854 201.397 271.294 200.077C271.734 198.757 272.372 197.569 273.208 196.513C274.044 195.457 275.056 194.621 276.244 194.005C277.454 193.389 278.818 193.081 280.336 193.081C282.118 193.081 283.504 193.488 284.494 194.302C285.506 195.116 286.012 196.183 286.012 197.503C286.012 198.515 285.704 199.417 285.088 200.209C284.494 200.979 283.68 201.639 282.646 202.189C281.612 202.717 280.457 203.113 279.181 203.377C277.905 203.641 276.585 203.773 275.221 203.773C275.001 203.773 274.792 203.773 274.594 203.773C274.396 203.773 274.209 203.762 274.033 203.74L274.264 201.133C274.506 201.155 274.748 201.177 274.99 201.199C275.254 201.221 275.518 201.232 275.782 201.232C276.552 201.232 277.311 201.166 278.059 201.034C278.829 200.88 279.522 200.671 280.138 200.407C280.754 200.121 281.249 199.769 281.623 199.351C281.997 198.933 282.184 198.449 282.184 197.899C282.184 197.305 281.975 196.821 281.557 196.447C281.139 196.073 280.556 195.886 279.808 195.886C278.972 195.886 278.213 196.139 277.531 196.645C276.871 197.129 276.31 197.778 275.848 198.592C275.408 199.406 275.067 200.297 274.825 201.265C274.583 202.211 274.462 203.157 274.462 204.103C274.462 205.643 274.781 206.765 275.419 207.469C276.079 208.173 276.97 208.525 278.092 208.525C278.84 208.525 279.632 208.393 280.468 208.129C281.326 207.865 282.195 207.491 283.075 207.007L284.065 209.284C282.943 209.966 281.799 210.483 280.633 210.835C279.467 211.187 278.334 211.363 277.234 211.363ZM294.153 211.363C292.921 211.363 291.799 211.121 290.787 210.637C289.797 210.131 289.005 209.35 288.411 208.294C287.839 207.238 287.553 205.863 287.553 204.169C287.553 202.761 287.773 201.397 288.213 200.077C288.653 198.757 289.291 197.569 290.127 196.513C290.963 195.457 291.975 194.621 293.163 194.005C294.373 193.389 295.737 193.081 297.255 193.081C299.037 193.081 300.423 193.488 301.413 194.302C302.425 195.116 302.931 196.183 302.931 197.503C302.931 198.515 302.623 199.417 302.007 200.209C301.413 200.979 300.599 201.639 299.565 202.189C298.531 202.717 297.376 203.113 296.1 203.377C294.824 203.641 293.504 203.773 292.14 203.773C291.92 203.773 291.711 203.773 291.513 203.773C291.315 203.773 291.128 203.762 290.952 203.74L291.183 201.133C291.425 201.155 291.667 201.177 291.909 201.199C292.173 201.221 292.437 201.232 292.701 201.232C293.471 201.232 294.23 201.166 294.978 201.034C295.748 200.88 296.441 200.671 297.057 200.407C297.673 200.121 298.168 199.769 298.542 199.351C298.916 198.933 299.103 198.449 299.103 197.899C299.103 197.305 298.894 196.821 298.476 196.447C298.058 196.073 297.475 195.886 296.727 195.886C295.891 195.886 295.132 196.139 294.45 196.645C293.79 197.129 293.229 197.778 292.767 198.592C292.327 199.406 291.986 200.297 291.744 201.265C291.502 202.211 291.381 203.157 291.381 204.103C291.381 205.643 291.7 206.765 292.338 207.469C292.998 208.173 293.889 208.525 295.011 208.525C295.759 208.525 296.551 208.393 297.387 208.129C298.245 207.865 299.114 207.491 299.994 207.007L300.984 209.284C299.862 209.966 298.718 210.483 297.552 210.835C296.386 211.187 295.253 211.363 294.153 211.363ZM305 211L307.64 194.401L309.026 196.843L305.033 195.622L305.363 193.543L311.501 193.312L310.28 199.219L309.059 201.331C309.477 199.527 310.115 198.02 310.973 196.81C311.853 195.578 312.832 194.654 313.91 194.038C315.01 193.4 316.077 193.081 317.111 193.081C317.683 193.081 318.167 193.158 318.563 193.312L317.606 198.856H315.23V195.754L315.692 196.15C315.12 196.084 314.537 196.227 313.943 196.579C313.349 196.909 312.788 197.404 312.26 198.064C311.754 198.724 311.303 199.538 310.907 200.506C310.533 201.452 310.247 202.53 310.049 203.74L308.894 211H305ZM333.559 211.363C332.063 211.363 330.688 211.022 329.434 210.34C328.202 209.636 327.212 208.569 326.464 207.139C325.716 205.687 325.342 203.872 325.342 201.694C325.342 199.868 325.617 198.108 326.167 196.414C326.739 194.698 327.542 193.169 328.576 191.827C329.61 190.485 330.864 189.429 332.338 188.659C333.812 187.867 335.462 187.471 337.288 187.471C338.366 187.471 339.477 187.614 340.621 187.9C341.765 188.186 342.931 188.615 344.119 189.187L343.03 194.797H340.654L340.555 190.936L341.248 191.563C340.544 191.255 339.84 191.024 339.136 190.87C338.432 190.716 337.783 190.639 337.189 190.639C335.957 190.639 334.868 190.969 333.922 191.629C332.976 192.267 332.173 193.125 331.513 194.203C330.853 195.259 330.358 196.436 330.028 197.734C329.698 199.01 329.533 200.275 329.533 201.529C329.533 203.069 329.753 204.312 330.193 205.258C330.633 206.204 331.227 206.908 331.975 207.37C332.745 207.81 333.592 208.03 334.516 208.03C335.418 208.03 336.364 207.832 337.354 207.436C338.366 207.018 339.345 206.413 340.291 205.621L341.611 208.129C340.335 209.207 338.993 210.021 337.585 210.571C336.199 211.099 334.857 211.363 333.559 211.363ZM353.49 193.081C354.788 193.081 355.932 193.323 356.922 193.807C357.912 194.291 358.682 195.061 359.232 196.117C359.782 197.151 360.057 198.537 360.057 200.275C360.057 201.639 359.859 202.981 359.463 204.301C359.067 205.621 358.473 206.82 357.681 207.898C356.889 208.954 355.888 209.801 354.678 210.439C353.468 211.055 352.038 211.363 350.388 211.363C349.09 211.363 347.946 211.121 346.956 210.637C345.966 210.153 345.196 209.383 344.646 208.327C344.096 207.271 343.821 205.896 343.821 204.202C343.821 202.816 344.019 201.474 344.415 200.176C344.811 198.856 345.405 197.668 346.197 196.612C346.989 195.534 347.99 194.676 349.2 194.038C350.41 193.4 351.84 193.081 353.49 193.081ZM352.962 195.952C352.038 195.952 351.246 196.227 350.586 196.777C349.926 197.327 349.387 198.02 348.969 198.856C348.573 199.692 348.276 200.594 348.078 201.562C347.88 202.508 347.781 203.388 347.781 204.202C347.781 205.544 348.034 206.6 348.54 207.37C349.046 208.118 349.838 208.492 350.916 208.492C351.818 208.492 352.599 208.217 353.259 207.667C353.919 207.117 354.458 206.424 354.876 205.588C355.294 204.73 355.602 203.828 355.8 202.882C355.998 201.914 356.097 201.023 356.097 200.209C356.097 198.867 355.844 197.822 355.338 197.074C354.832 196.326 354.04 195.952 352.962 195.952ZM382.847 211.132L384.629 199.945C384.761 199.153 384.783 198.482 384.695 197.932C384.629 197.36 384.464 196.931 384.2 196.645C383.936 196.337 383.562 196.183 383.078 196.183C382.616 196.183 382.121 196.337 381.593 196.645C381.065 196.953 380.548 197.426 380.042 198.064C379.558 198.68 379.118 199.461 378.722 200.407C378.326 201.353 378.029 202.464 377.831 203.74L376.709 211H372.815L374.597 199.945C374.729 199.153 374.751 198.482 374.663 197.932C374.597 197.36 374.421 196.931 374.135 196.645C373.871 196.337 373.508 196.183 373.046 196.183C372.584 196.183 372.089 196.337 371.561 196.645C371.033 196.953 370.516 197.426 370.01 198.064C369.526 198.68 369.086 199.461 368.69 200.407C368.294 201.353 367.997 202.464 367.799 203.74L366.644 211H362.75L365.192 195.655L366.776 196.843L362.783 195.622L363.113 193.543L369.251 193.312L368.03 199.219L366.842 201.298C367.348 199.34 368.041 197.767 368.921 196.579C369.823 195.369 370.791 194.489 371.825 193.939C372.881 193.367 373.871 193.081 374.795 193.081C375.675 193.081 376.423 193.312 377.039 193.774C377.677 194.214 378.128 194.863 378.392 195.721C378.678 196.557 378.733 197.569 378.557 198.757L378.359 199.945L376.907 201.298C377.413 199.34 378.106 197.767 378.986 196.579C379.888 195.369 380.856 194.489 381.89 193.939C382.924 193.367 383.903 193.081 384.827 193.081C385.729 193.081 386.499 193.323 387.137 193.807C387.775 194.291 388.237 194.984 388.523 195.886C388.809 196.766 388.842 197.833 388.622 199.087L387.071 208.888L385.421 207.601L389.546 208.822L389.216 210.967L382.847 211.132ZM412.721 211.132L414.503 199.945C414.635 199.153 414.657 198.482 414.569 197.932C414.503 197.36 414.338 196.931 414.074 196.645C413.81 196.337 413.436 196.183 412.952 196.183C412.49 196.183 411.995 196.337 411.467 196.645C410.939 196.953 410.422 197.426 409.916 198.064C409.432 198.68 408.992 199.461 408.596 200.407C408.2 201.353 407.903 202.464 407.705 203.74L406.583 211H402.689L404.471 199.945C404.603 199.153 404.625 198.482 404.537 197.932C404.471 197.36 404.295 196.931 404.009 196.645C403.745 196.337 403.382 196.183 402.92 196.183C402.458 196.183 401.963 196.337 401.435 196.645C400.907 196.953 400.39 197.426 399.884 198.064C399.4 198.68 398.96 199.461 398.564 200.407C398.168 201.353 397.871 202.464 397.673 203.74L396.518 211H392.624L395.066 195.655L396.65 196.843L392.657 195.622L392.987 193.543L399.125 193.312L397.904 199.219L396.716 201.298C397.222 199.34 397.915 197.767 398.795 196.579C399.697 195.369 400.665 194.489 401.699 193.939C402.755 193.367 403.745 193.081 404.669 193.081C405.549 193.081 406.297 193.312 406.913 193.774C407.551 194.214 408.002 194.863 408.266 195.721C408.552 196.557 408.607 197.569 408.431 198.757L408.233 199.945L406.781 201.298C407.287 199.34 407.98 197.767 408.86 196.579C409.762 195.369 410.73 194.489 411.764 193.939C412.798 193.367 413.777 193.081 414.701 193.081C415.603 193.081 416.373 193.323 417.011 193.807C417.649 194.291 418.111 194.984 418.397 195.886C418.683 196.766 418.716 197.833 418.496 199.087L416.945 208.888L415.295 207.601L419.42 208.822L419.09 210.967L412.721 211.132ZM427.25 211.363C426.282 211.385 425.457 211.154 424.775 210.67C424.093 210.164 423.609 209.471 423.323 208.591C423.059 207.689 423.015 206.622 423.191 205.39L424.742 195.589L425.072 196.348L422.366 195.622L422.696 193.543L428.999 193.312L427.217 204.499C427.107 205.269 427.085 205.94 427.151 206.512C427.239 207.062 427.426 207.491 427.712 207.799C428.02 208.107 428.427 208.261 428.933 208.261C429.461 208.261 430 208.118 430.55 207.832C431.1 207.524 431.628 207.062 432.134 206.446C432.662 205.808 433.124 205.016 433.52 204.07C433.938 203.124 434.246 202.002 434.444 200.704L435.566 193.444H439.46L437.051 208.822L436.556 208.096L439.493 208.921L439.163 210.967L433.19 211.132L434.246 205.159L435.434 203.113C434.972 205.049 434.279 206.622 433.355 207.832C432.453 209.042 431.463 209.933 430.385 210.505C429.329 211.077 428.284 211.363 427.25 211.363ZM453.165 211.132L454.98 199.945C455.112 199.175 455.134 198.515 455.046 197.965C454.958 197.393 454.76 196.953 454.452 196.645C454.166 196.337 453.759 196.183 453.231 196.183C452.725 196.183 452.186 196.337 451.614 196.645C451.064 196.953 450.525 197.415 449.997 198.031C449.491 198.647 449.04 199.428 448.644 200.374C448.248 201.32 447.951 202.442 447.753 203.74L446.598 211H442.704L445.344 194.401L446.73 196.843L442.737 195.622L443.067 193.543L449.205 193.312L447.984 199.219L446.73 201.298C447.236 199.362 447.94 197.789 448.842 196.579C449.766 195.369 450.756 194.489 451.812 193.939C452.89 193.367 453.913 193.081 454.881 193.081C455.893 193.081 456.74 193.323 457.422 193.807C458.104 194.291 458.588 194.984 458.874 195.886C459.16 196.766 459.193 197.833 458.973 199.087L457.422 208.888L455.739 207.601L459.864 208.822L459.534 210.967L453.165 211.132ZM462.942 211.132L465.582 194.401L467.001 196.843L462.975 195.622L463.305 193.543L469.641 193.312L466.968 210.109L465.648 207.634L469.608 208.888L469.278 210.967L462.942 211.132ZM468.222 190.441C467.562 190.441 467.045 190.243 466.671 189.847C466.297 189.451 466.11 188.923 466.11 188.263C466.11 187.471 466.352 186.822 466.836 186.316C467.342 185.81 467.98 185.557 468.75 185.557C469.388 185.557 469.894 185.755 470.268 186.151C470.664 186.525 470.862 187.053 470.862 187.735C470.862 188.505 470.62 189.154 470.136 189.682C469.652 190.188 469.014 190.441 468.222 190.441ZM482.241 210.208C481.383 210.582 480.547 210.868 479.733 211.066C478.941 211.264 478.204 211.363 477.522 211.363C476.334 211.363 475.366 211.044 474.618 210.406C473.892 209.768 473.529 208.767 473.529 207.403C473.529 207.183 473.529 206.974 473.529 206.776C473.551 206.578 473.584 206.358 473.628 206.116L475.278 195.589L475.674 196.15H472.572L472.902 193.972L476.268 193.279L475.542 194.005L476.268 189.55L480.228 188.89L479.436 194.005L479.106 193.444H483.99L483.561 196.15H478.611L479.172 195.589L477.522 205.918C477.5 206.006 477.478 206.127 477.456 206.281C477.456 206.413 477.456 206.556 477.456 206.71C477.456 207.304 477.588 207.733 477.852 207.997C478.116 208.239 478.479 208.36 478.941 208.36C479.271 208.36 479.645 208.305 480.063 208.195C480.481 208.063 480.932 207.887 481.416 207.667L482.241 210.208ZM481.843 218.755L482.338 215.884C482.624 215.906 482.888 215.928 483.13 215.95C483.372 215.972 483.603 215.983 483.823 215.983C484.813 215.983 485.649 215.774 486.331 215.356C487.035 214.938 487.684 214.3 488.278 213.442C488.872 212.584 489.488 211.495 490.126 210.175L489.928 211.561L486.1 195.721L486.43 196.084L484.549 195.655L484.879 193.576L489.73 193.312L492.535 208.459L491.512 208.261L497.32 195.688L497.485 196.084L495.439 195.655L495.736 193.576L502.633 193.312L502.336 195.391L500.323 195.985L500.95 195.622L493.393 210.967C493.107 211.583 492.766 212.243 492.37 212.947C491.996 213.673 491.545 214.388 491.017 215.092C490.511 215.796 489.917 216.434 489.235 217.006C488.575 217.6 487.794 218.073 486.892 218.425C486.012 218.777 485.011 218.953 483.889 218.953C483.229 218.953 482.547 218.887 481.843 218.755Z" fill="white"/>
<path d="M19.778 76.682C16.5127 76.682 13.6607 76.062 11.222 74.822C8.82467 73.5407 6.944 71.598 5.58 68.994C4.25733 66.3487 3.596 62.9387 3.596 58.764C3.596 55.0853 4.13333 51.6133 5.208 48.348C6.324 45.0827 7.89467 42.21 9.92 39.73C11.9867 37.25 14.446 35.3073 17.298 33.902C20.1913 32.4967 23.4153 31.794 26.97 31.794C29.2433 31.794 31.5167 32.0833 33.79 32.662C36.1047 33.1993 38.4607 34.0053 40.858 35.08L38.812 45.682H34.41L34.162 38.366L35.34 39.482C33.9347 38.862 32.5707 38.428 31.248 38.18C29.9253 37.8907 28.6853 37.746 27.528 37.746C25.0893 37.746 22.878 38.304 20.894 39.42C18.91 40.4947 17.2153 42.0033 15.81 43.946C14.4047 45.8473 13.33 48.0793 12.586 50.642C11.842 53.1633 11.47 55.8913 11.47 58.826C11.47 61.678 11.842 63.972 12.586 65.708C13.33 67.4027 14.4047 68.6427 15.81 69.428C17.2153 70.2133 18.91 70.606 20.894 70.606C22.258 70.606 23.684 70.4407 25.172 70.11C26.7013 69.7793 28.2927 69.3247 29.946 68.746L28.954 70.544L30.69 58.392L31.744 59.694L26.164 58.64L26.784 54.61L42.842 54.3L42.222 58.392L36.704 59.756L37.634 58.392L35.526 72.962C32.6327 74.2433 29.8427 75.194 27.156 75.814C24.5107 76.3927 22.0513 76.682 19.778 76.682ZM58.3425 76.682C56.0278 76.682 53.9198 76.2273 52.0185 75.318C50.1585 74.3673 48.6705 72.9 47.5545 70.916C46.4798 68.932 45.9425 66.3487 45.9425 63.166C45.9425 60.5207 46.3558 57.958 47.1825 55.478C48.0092 52.998 49.2078 50.766 50.7785 48.782C52.3492 46.798 54.2505 45.2273 56.4825 44.07C58.7558 42.9127 61.3185 42.334 64.1705 42.334C67.5185 42.334 70.1225 43.0987 71.9825 44.628C73.8838 46.1573 74.8345 48.162 74.8345 50.642C74.8345 52.5433 74.2558 54.238 73.0985 55.726C71.9825 57.1727 70.4532 58.4127 68.5105 59.446C66.5678 60.438 64.3978 61.182 62.0005 61.678C59.6032 62.174 57.1232 62.422 54.5605 62.422C54.1472 62.422 53.7545 62.422 53.3825 62.422C53.0105 62.422 52.6592 62.4013 52.3285 62.36L52.7625 57.462C53.2172 57.5033 53.6718 57.5447 54.1265 57.586C54.6225 57.6273 55.1185 57.648 55.6145 57.648C57.0612 57.648 58.4872 57.524 59.8925 57.276C61.3392 56.9867 62.6412 56.594 63.7985 56.098C64.9558 55.5607 65.8858 54.8993 66.5885 54.114C67.2912 53.3287 67.6425 52.4193 67.6425 51.386C67.6425 50.27 67.2498 49.3607 66.4645 48.658C65.6792 47.9553 64.5838 47.604 63.1785 47.604C61.6078 47.604 60.1818 48.0793 58.9005 49.03C57.6605 49.9393 56.6065 51.1587 55.7385 52.688C54.9118 54.2173 54.2712 55.8913 53.8165 57.71C53.3618 59.4873 53.1345 61.2647 53.1345 63.042C53.1345 65.9353 53.7338 68.0433 54.9325 69.366C56.1725 70.6887 57.8465 71.35 59.9545 71.35C61.3598 71.35 62.8478 71.102 64.4185 70.606C66.0305 70.11 67.6632 69.4073 69.3165 68.498L71.1765 72.776C69.0685 74.0573 66.9192 75.0287 64.7285 75.69C62.5378 76.3513 60.4092 76.682 58.3425 76.682ZM96.3916 74.512C94.7796 75.2147 93.2089 75.752 91.6796 76.124C90.1916 76.496 88.8069 76.682 87.5256 76.682C85.2936 76.682 83.4749 76.0827 82.0696 74.884C80.7056 73.6853 80.0236 71.8047 80.0236 69.242C80.0236 68.8287 80.0236 68.436 80.0236 68.064C80.0649 67.692 80.1269 67.2787 80.2096 66.824L83.3096 47.046L84.0536 48.1H78.2256L78.8456 44.008L85.1696 42.706L83.8056 44.07L85.1696 35.7L92.6096 34.46L91.1216 44.07L90.5016 43.016H99.6776L98.8716 48.1H89.5716L90.6256 47.046L87.5256 66.452C87.4843 66.6173 87.4429 66.8447 87.4016 67.134C87.4016 67.382 87.4016 67.6507 87.4016 67.94C87.4016 69.056 87.6496 69.862 88.1456 70.358C88.6416 70.8127 89.3236 71.04 90.1916 71.04C90.8116 71.04 91.5143 70.9367 92.2996 70.73C93.0849 70.482 93.9323 70.1513 94.8416 69.738L96.3916 74.512ZM116.865 67.568V65.088C116.865 64.716 117.03 64.53 117.361 64.53H118.229C118.56 64.53 118.725 64.716 118.725 65.088V67.506C118.725 69.614 119.283 71.2673 120.399 72.466C121.515 73.6647 123.106 74.264 125.173 74.264H132.613C134.68 74.264 136.271 73.6647 137.387 72.466C138.503 71.2673 139.061 69.614 139.061 67.506V64.406C139.061 62.4633 138.296 60.934 136.767 59.818C135.238 58.6607 133.378 57.834 131.187 57.338C129.038 56.8007 126.868 56.284 124.677 55.788C122.528 55.2507 120.688 54.3827 119.159 53.184C117.63 51.9853 116.865 50.3527 116.865 48.286V44.566C116.865 42.0033 117.609 39.9573 119.097 38.428C120.626 36.8987 122.652 36.134 125.173 36.134H132.613C135.134 36.134 137.139 36.8987 138.627 38.428C140.156 39.9573 140.921 42.0033 140.921 44.566V46.426C140.921 46.798 140.756 46.984 140.425 46.984H139.557C139.226 46.984 139.061 46.798 139.061 46.426V44.628C139.061 42.52 138.503 40.8667 137.387 39.668C136.271 38.4693 134.68 37.87 132.613 37.87H125.173C123.106 37.87 121.515 38.4693 120.399 39.668C119.283 40.8667 118.725 42.52 118.725 44.628V48.224C118.725 51.2827 121.329 53.3907 126.537 54.548C128.728 55.0027 130.898 55.5193 133.047 56.098C135.238 56.6353 137.098 57.586 138.627 58.95C140.156 60.2727 140.921 62.05 140.921 64.282V67.568C140.921 70.1307 140.156 72.1767 138.627 73.706C137.139 75.2353 135.134 76 132.613 76H125.173C122.652 76 120.626 75.2353 119.097 73.706C117.609 72.1767 116.865 70.1307 116.865 67.568ZM173.989 36.134H174.857C175.188 36.134 175.353 36.2993 175.353 36.63V67.568C175.353 70.1307 174.589 72.1767 173.059 73.706C171.571 75.2353 169.567 76 167.045 76H160.101C157.58 76 155.555 75.2353 154.025 73.706C152.537 72.1767 151.793 70.1307 151.793 67.568V36.692C151.793 36.32 151.959 36.134 152.289 36.134H153.157C153.488 36.134 153.653 36.32 153.653 36.692V67.506C153.653 69.614 154.211 71.2673 155.327 72.466C156.443 73.6647 158.035 74.264 160.101 74.264H167.045C169.112 74.264 170.703 73.6647 171.819 72.466C172.935 71.2673 173.493 69.614 173.493 67.506V36.692C173.493 36.32 173.659 36.134 173.989 36.134ZM187.555 76H186.687C186.357 76 186.191 75.814 186.191 75.442V36.692C186.191 36.32 186.357 36.134 186.687 36.134H200.699C203.221 36.134 205.225 36.8987 206.713 38.428C208.243 39.9573 209.007 42.0033 209.007 44.566V52.192C209.007 54.7547 208.243 56.8007 206.713 58.33C205.225 59.8593 203.221 60.624 200.699 60.624H188.609C188.237 60.624 188.051 60.7893 188.051 61.12V75.442C188.051 75.814 187.886 76 187.555 76ZM188.609 58.888H200.699C202.766 58.888 204.357 58.2887 205.473 57.09C206.589 55.8913 207.147 54.238 207.147 52.13V44.628C207.147 42.52 206.589 40.8667 205.473 39.668C204.357 38.4693 202.766 37.87 200.699 37.87H188.609C188.237 37.87 188.051 38.0353 188.051 38.366V58.392C188.051 58.7227 188.237 58.888 188.609 58.888ZM220.008 76H219.14C218.81 76 218.644 75.814 218.644 75.442V36.692C218.644 36.32 218.81 36.134 219.14 36.134H233.152C235.674 36.134 237.678 36.8987 239.166 38.428C240.696 39.9573 241.46 42.0033 241.46 44.566V52.192C241.46 54.7547 240.696 56.8007 239.166 58.33C237.678 59.8593 235.674 60.624 233.152 60.624H221.062C220.69 60.624 220.504 60.7893 220.504 61.12V75.442C220.504 75.814 220.339 76 220.008 76ZM221.062 58.888H233.152C235.219 58.888 236.81 58.2887 237.926 57.09C239.042 55.8913 239.6 54.238 239.6 52.13V44.628C239.6 42.52 239.042 40.8667 237.926 39.668C236.81 38.4693 235.219 37.87 233.152 37.87H221.062C220.69 37.87 220.504 38.0353 220.504 38.366V58.392C220.504 58.7227 220.69 58.888 221.062 58.888ZM258.786 74.264H266.536C268.602 74.264 270.194 73.6647 271.31 72.466C272.426 71.2673 272.984 69.614 272.984 67.506V44.628C272.984 42.52 272.426 40.8667 271.31 39.668C270.194 38.4693 268.602 37.87 266.536 37.87H258.786C256.719 37.87 255.128 38.4693 254.012 39.668C252.896 40.8667 252.338 42.52 252.338 44.628V67.506C252.338 69.614 252.896 71.2673 254.012 72.466C255.128 73.6647 256.719 74.264 258.786 74.264ZM266.536 76H258.786C256.264 76 254.239 75.2353 252.71 73.706C251.222 72.1767 250.478 70.1307 250.478 67.568V44.566C250.478 42.0033 251.222 39.9573 252.71 38.428C254.239 36.8987 256.264 36.134 258.786 36.134H266.536C269.057 36.134 271.062 36.8987 272.55 38.428C274.079 39.9573 274.844 42.0033 274.844 44.566V67.568C274.844 70.1307 274.079 72.1767 272.55 73.706C271.062 75.2353 269.057 76 266.536 76ZM286.731 76H285.863C285.532 76 285.367 75.814 285.367 75.442V36.692C285.367 36.32 285.532 36.134 285.863 36.134H299.813C302.334 36.134 304.339 36.8987 305.827 38.428C307.356 39.9573 308.121 42.0033 308.121 44.566V50.766C308.121 53.0807 307.501 54.982 306.261 56.47C305.021 57.9167 303.347 58.7847 301.239 59.074V59.322L308.865 75.442C309.072 75.814 308.989 76 308.617 76H307.501C307.17 76 306.902 75.814 306.695 75.442L299.131 59.198H287.785C287.413 59.198 287.227 59.3633 287.227 59.694V75.442C287.227 75.814 287.062 76 286.731 76ZM287.785 57.462H299.813C301.88 57.462 303.471 56.8627 304.587 55.664C305.703 54.4653 306.261 52.812 306.261 50.704V44.628C306.261 42.52 305.703 40.8667 304.587 39.668C303.471 38.4693 301.88 37.87 299.813 37.87H287.785C287.413 37.87 287.227 38.0353 287.227 38.366V56.966C287.227 57.2967 287.413 57.462 287.785 57.462ZM325.932 76H325.064C324.733 76 324.568 75.814 324.568 75.442V38.366C324.568 38.0353 324.382 37.87 324.01 37.87H314.462C314.09 37.87 313.904 37.7047 313.904 37.374V36.63C313.904 36.2993 314.09 36.134 314.462 36.134H336.534C336.906 36.134 337.092 36.2993 337.092 36.63V37.374C337.092 37.7047 336.906 37.87 336.534 37.87H326.986C326.614 37.87 326.428 38.0353 326.428 38.366V75.442C326.428 75.814 326.263 76 325.932 76ZM350.51 76L351.13 72.094L356.772 70.606L355.656 71.722L361.174 36.878L362.042 38.118L356.71 36.692L357.33 32.786L369.234 32.476H387.028L385.354 43.326H380.952L380.766 37.188L381.944 38.056H367.25L368.676 36.878L366.134 52.936L365.204 51.386H379.402L378.596 57.028H364.212L365.638 55.664L363.096 71.722L362.476 70.606L368.8 72.094L368.242 76H350.51ZM387.087 76L392.047 44.814L394.651 49.402L387.149 47.108L387.769 43.202L399.301 42.768L397.007 53.866L394.713 57.834C395.498 54.4447 396.697 51.6133 398.309 49.34C399.962 47.0253 401.801 45.2893 403.827 44.132C405.893 42.9333 407.898 42.334 409.841 42.334C410.915 42.334 411.825 42.4787 412.569 42.768L410.771 53.184H406.307V47.356L407.175 48.1C406.1 47.976 405.005 48.2447 403.889 48.906C402.773 49.526 401.719 50.456 400.727 51.696C399.776 52.936 398.929 54.4653 398.185 56.284C397.482 58.0613 396.945 60.0867 396.573 62.36L394.403 76H387.087ZM430.055 42.334C432.494 42.334 434.643 42.7887 436.503 43.698C438.363 44.6073 439.81 46.054 440.843 48.038C441.877 49.9807 442.393 52.5847 442.393 55.85C442.393 58.4127 442.021 60.934 441.277 63.414C440.533 65.894 439.417 68.1467 437.929 70.172C436.441 72.156 434.561 73.7473 432.287 74.946C430.014 76.1033 427.327 76.682 424.227 76.682C421.789 76.682 419.639 76.2273 417.779 75.318C415.919 74.4087 414.473 72.962 413.439 70.978C412.406 68.994 411.889 66.4107 411.889 63.228C411.889 60.624 412.261 58.1027 413.005 55.664C413.749 53.184 414.865 50.952 416.353 48.968C417.841 46.9427 419.722 45.3307 421.995 44.132C424.269 42.9333 426.955 42.334 430.055 42.334ZM429.063 47.728C427.327 47.728 425.839 48.2447 424.599 49.278C423.359 50.3113 422.347 51.6133 421.561 53.184C420.817 54.7547 420.259 56.4493 419.887 58.268C419.515 60.0453 419.329 61.6987 419.329 63.228C419.329 65.7493 419.805 67.7333 420.755 69.18C421.706 70.5853 423.194 71.288 425.219 71.288C426.914 71.288 428.381 70.7713 429.621 69.738C430.861 68.7047 431.874 67.4027 432.659 65.832C433.445 64.22 434.023 62.5253 434.395 60.748C434.767 58.9293 434.953 57.2553 434.953 55.726C434.953 53.2047 434.478 51.2413 433.527 49.836C432.577 48.4307 431.089 47.728 429.063 47.728ZM485.21 76.248L488.558 55.23C488.806 53.742 488.847 52.4813 488.682 51.448C488.558 50.3733 488.248 49.5673 487.752 49.03C487.256 48.4513 486.553 48.162 485.644 48.162C484.776 48.162 483.846 48.4513 482.854 49.03C481.862 49.6087 480.891 50.4973 479.94 51.696C479.031 52.8533 478.204 54.3207 477.46 56.098C476.716 57.8753 476.158 59.9627 475.786 62.36L473.678 76H466.362L469.71 55.23C469.958 53.742 469.999 52.4813 469.834 51.448C469.71 50.3733 469.379 49.5673 468.842 49.03C468.346 48.4513 467.664 48.162 466.796 48.162C465.928 48.162 464.998 48.4513 464.006 49.03C463.014 49.6087 462.043 50.4973 461.092 51.696C460.183 52.8533 459.356 54.3207 458.612 56.098C457.868 57.8753 457.31 59.9627 456.938 62.36L454.768 76H447.452L452.04 47.17L455.016 49.402L447.514 47.108L448.134 43.202L459.666 42.768L457.372 53.866L455.14 57.772C456.091 54.0933 457.393 51.138 459.046 48.906C460.741 46.6327 462.559 44.9793 464.502 43.946C466.486 42.8713 468.346 42.334 470.082 42.334C471.735 42.334 473.141 42.768 474.298 43.636C475.497 44.4627 476.344 45.682 476.84 47.294C477.377 48.8647 477.481 50.766 477.15 52.998L476.778 55.23L474.05 57.772C475.001 54.0933 476.303 51.138 477.956 48.906C479.651 46.6327 481.469 44.9793 483.412 43.946C485.355 42.8713 487.194 42.334 488.93 42.334C490.625 42.334 492.071 42.7887 493.27 43.698C494.469 44.6073 495.337 45.9093 495.874 47.604C496.411 49.2573 496.473 51.262 496.06 53.618L493.146 72.032L490.046 69.614L497.796 71.908L497.176 75.938L485.21 76.248ZM13.248 161H8.928C8.032 161 7.584 160.552 7.584 159.656V100.616C7.584 99.72 8.032 99.272 8.928 99.272H31.392C35.808 99.272 39.264 100.552 41.76 103.112C44.256 105.608 45.504 109.064 45.504 113.48V124.136C45.504 128.616 44.256 132.104 41.76 134.6C39.264 137.096 35.808 138.344 31.392 138.344H15.552C14.912 138.344 14.592 138.632 14.592 139.208V159.656C14.592 160.552 14.144 161 13.248 161ZM15.552 132.104H30.432C35.808 132.104 38.496 129.352 38.496 123.848V113.768C38.496 108.2 35.808 105.416 30.432 105.416H15.552C14.912 105.416 14.592 105.704 14.592 106.28V131.24C14.592 131.816 14.912 132.104 15.552 132.104ZM90.2753 161H59.4593C58.5633 161 58.1153 160.552 58.1153 159.656V100.616C58.1153 99.72 58.5633 99.272 59.4593 99.272H63.7793C64.6753 99.272 65.1233 99.72 65.1233 100.616V153.8C65.1233 154.376 65.4433 154.664 66.0833 154.664H90.2753C91.1713 154.664 91.6193 155.144 91.6193 156.104V159.656C91.6193 160.552 91.1713 161 90.2753 161ZM102.196 161H97.3958C96.5638 161 96.2758 160.552 96.5318 159.656L114.484 100.616C114.74 99.72 115.348 99.272 116.308 99.272H123.22C124.18 99.272 124.788 99.72 125.044 100.616L142.996 159.656C143.252 160.552 142.964 161 142.132 161H137.236C136.532 161 136.084 160.552 135.892 159.656L131.38 145.64H108.148L103.636 159.656C103.38 160.552 102.9 161 102.196 161ZM119.572 106.472L109.684 139.688H129.844L119.956 106.472H119.572ZM171.8 161H167.48C166.584 161 166.136 160.552 166.136 159.656V137.864L147.896 100.712C147.704 100.264 147.704 99.912 147.896 99.656C148.088 99.4 148.376 99.272 148.76 99.272H154.136C154.84 99.272 155.384 99.72 155.768 100.616L169.496 129.704H169.976L183.608 100.616C183.864 99.72 184.376 99.272 185.144 99.272H190.616C191.704 99.272 191.992 99.752 191.48 100.712L173.144 137.864V159.656C173.144 160.552 172.696 161 171.8 161ZM224.888 161H214.52C210.104 161 206.616 159.752 204.056 157.256C201.56 154.76 200.312 151.272 200.312 146.792V113.48C200.312 109 201.56 105.512 204.056 103.016C206.616 100.52 210.104 99.272 214.52 99.272H224.888C229.304 99.272 232.76 100.552 235.256 103.112C237.752 105.608 239 109.064 239 113.48V117.416C239 118.376 238.552 118.856 237.656 118.856H233.336C232.44 118.856 231.992 118.376 231.992 117.416V113.768C231.992 108.2 229.336 105.416 224.024 105.416H215.288C209.976 105.416 207.32 108.2 207.32 113.768V146.504C207.32 152.072 209.976 154.856 215.288 154.856H224.024C229.336 154.856 231.992 152.072 231.992 146.504V135.752C231.992 135.112 231.704 134.792 231.128 134.792H221.624C220.728 134.792 220.28 134.376 220.28 133.544V129.992C220.28 129.096 220.728 128.648 221.624 128.648H237.08C238.36 128.648 239 129.32 239 130.664V146.792C239 151.272 237.752 154.76 235.256 157.256C232.76 159.752 229.304 161 224.888 161ZM258.873 161H254.553C253.657 161 253.209 160.552 253.209 159.656V100.616C253.209 99.72 253.657 99.272 254.553 99.272H276.633C281.049 99.272 284.537 100.552 287.097 103.112C289.657 105.608 290.937 109.064 290.937 113.48V122.216C290.937 125.8 290.073 128.776 288.345 131.144C286.617 133.448 284.217 134.984 281.145 135.752V136.136L292.281 159.464C292.857 160.488 292.537 161 291.321 161H287.001C285.913 161 285.113 160.552 284.601 159.656L273.849 136.424H261.177C260.537 136.424 260.217 136.712 260.217 137.288V159.656C260.217 160.552 259.769 161 258.873 161ZM261.177 130.568H275.673C281.177 130.568 283.929 127.816 283.929 122.312V113.768C283.929 108.2 281.177 105.416 275.673 105.416H261.177C260.537 105.416 260.217 105.704 260.217 106.28V129.704C260.217 130.28 260.537 130.568 261.177 130.568ZM318.788 154.856H328.58C333.956 154.856 336.644 152.072 336.644 146.504V113.768C336.644 108.2 333.956 105.416 328.58 105.416H318.788C313.476 105.416 310.82 108.2 310.82 113.768V146.504C310.82 152.072 313.476 154.856 318.788 154.856ZM329.444 161H318.02C313.604 161 310.116 159.752 307.556 157.256C305.06 154.76 303.812 151.272 303.812 146.792V113.48C303.812 109 305.06 105.512 307.556 103.016C310.116 100.52 313.604 99.272 318.02 99.272H329.444C333.86 99.272 337.316 100.552 339.812 103.112C342.372 105.608 343.652 109.064 343.652 113.48V146.792C343.652 151.208 342.372 154.696 339.812 157.256C337.316 159.752 333.86 161 329.444 161ZM390.666 99.272H394.986C395.882 99.272 396.33 99.688 396.33 100.52V146.792C396.33 151.272 395.082 154.76 392.586 157.256C390.09 159.752 386.634 161 382.218 161H371.562C367.146 161 363.658 159.752 361.098 157.256C358.602 154.76 357.354 151.272 357.354 146.792V100.616C357.354 99.72 357.802 99.272 358.698 99.272H363.018C363.914 99.272 364.362 99.72 364.362 100.616V146.504C364.362 152.072 367.018 154.856 372.33 154.856H381.354C386.73 154.856 389.418 152.072 389.418 146.504V100.616C389.418 99.72 389.834 99.272 390.666 99.272ZM416.558 161H412.334C411.438 161 410.99 160.552 410.99 159.656V100.616C410.99 99.72 411.438 99.272 412.334 99.272H416.27C417.038 99.272 417.55 99.528 417.806 100.04L444.302 146.6H444.686V100.616C444.686 99.72 445.134 99.272 446.03 99.272H450.254C451.15 99.272 451.598 99.72 451.598 100.616V159.656C451.598 160.552 451.15 161 450.254 161H446.702C445.998 161 445.326 160.584 444.686 159.752L418.286 113.672H417.902V159.656C417.902 160.552 417.454 161 416.558 161ZM474.74 154.856H490.868C496.244 154.856 498.932 152.072 498.932 146.504V113.768C498.932 108.2 496.244 105.416 490.868 105.416H474.74C474.1 105.416 473.78 105.704 473.78 106.28V153.992C473.78 154.568 474.1 154.856 474.74 154.856ZM466.772 159.656V100.616C466.772 99.72 467.22 99.272 468.116 99.272H491.732C496.148 99.272 499.604 100.552 502.1 103.112C504.66 105.608 505.94 109.064 505.94 113.48V146.792C505.94 151.208 504.66 154.696 502.1 157.256C499.604 159.752 496.148 161 491.732 161H468.116C467.22 161 466.772 160.552 466.772 159.656Z" fill="white"/>
<rect x="505" y="137" width="8" height="8" fill="white"/>
<rect x="498" y="137" width="8" height="8" fill="#161919"/>
</svg>
