<svg width="307" height="138" viewBox="-10 -20 317 168" fill="none" xmlns="http://www.w3.org/2000/svg">
<path d="M21.3792 43.3303H12.5923C11.6532 43.3303 11.0942 42.8586 10.9154 41.9152L0.518544 1.54992C0.205521 0.51664 0.652696 0 1.86007 0H8.16523C9.05958 0 9.59619 0.471714 9.77506 1.41514L16.8181 34.5699H17.0864L24.1294 1.41514C24.3082 0.471714 24.8449 0 25.7392 0H32.0444C33.1623 0 33.6095 0.51664 33.3859 1.54992L22.9891 41.9152C22.7655 42.8586 22.2289 43.3303 21.3792 43.3303Z" fill="white"/>
<path d="M50.5228 35.9177H55.2852C56.7162 35.9177 57.7223 35.6257 58.3037 35.0416C58.9297 34.4127 59.2427 33.3794 59.2427 31.9418V11.3885C59.2427 9.95092 58.9297 8.94011 58.3037 8.35608C57.7223 7.72713 56.7162 7.41265 55.2852 7.41265H50.5228C49.0919 7.41265 48.0857 7.72713 47.5044 8.35608C46.9231 8.94011 46.6324 9.95092 46.6324 11.3885V31.9418C46.6324 33.3794 46.9231 34.4127 47.5044 35.0416C48.0857 35.6257 49.0919 35.9177 50.5228 35.9177ZM56.6938 43.3303H49.1813C45.6486 43.3303 42.9208 42.3869 40.998 40.5C39.0751 38.6132 38.1137 35.8952 38.1137 32.3461V10.9842C38.1137 7.43512 39.0751 4.71714 40.998 2.83029C42.9208 0.94343 45.6486 0 49.1813 0H56.6938C60.2265 0 62.9543 0.94343 64.8771 2.83029C66.8 4.71714 67.7614 7.43512 67.7614 10.9842V32.3461C67.7614 35.8952 66.8 38.6132 64.8771 40.5C62.9543 42.3869 60.2265 43.3303 56.6938 43.3303Z" fill="white"/>
<path d="M99.271 43.3303H77.2029C76.2638 43.3303 75.7943 42.8586 75.7943 41.9152V1.41514C75.7943 0.471714 76.2638 0 77.2029 0H82.9044C83.8435 0 84.313 0.471714 84.313 1.41514V35.109C84.313 35.6032 84.5813 35.8503 85.1179 35.8503H99.271C100.165 35.8503 100.613 36.3445 100.613 37.3328V41.9152C100.613 42.8586 100.165 43.3303 99.271 43.3303Z" fill="white"/>
<path d="M127.994 0H133.629C134.612 0 135.104 0.449251 135.104 1.34775V32.3461C135.104 35.8503 134.121 38.5683 132.153 40.5C130.23 42.3869 127.525 43.3303 124.037 43.3303H116.658C113.126 43.3303 110.398 42.3869 108.475 40.5C106.552 38.6132 105.591 35.8952 105.591 32.3461V1.41514C105.591 0.471714 106.06 0 106.999 0H112.701C113.64 0 114.109 0.471714 114.109 1.41514V31.9418C114.109 33.3794 114.4 34.4127 114.981 35.0416C115.608 35.6257 116.614 35.9177 118 35.9177H122.628C124.059 35.9177 125.065 35.6257 125.647 35.0416C126.273 34.4127 126.586 33.3794 126.586 31.9418V1.41514C126.586 0.471714 127.055 0 127.994 0Z" fill="white"/>
<path d="M150.436 43.3303H144.869C143.93 43.3303 143.46 42.8586 143.46 41.9152V1.41514C143.46 0.471714 143.93 0 144.869 0H149.899C150.838 0 151.464 0.314476 151.778 0.943429L165.327 26.4834H165.595V1.41514C165.595 0.471714 166.065 0 167.004 0H172.571C173.51 0 173.98 0.471714 173.98 1.41514V41.9152C173.98 42.8586 173.51 43.3303 172.571 43.3303H167.675C166.691 43.3303 165.975 42.8811 165.528 41.9826L152.113 16.9143H151.845V41.9152C151.845 42.8586 151.375 43.3303 150.436 43.3303Z" fill="white"/>
<path d="M196.045 43.3303H190.411C189.427 43.3303 188.935 42.8586 188.935 41.9152V8.15392C188.935 7.65974 188.689 7.41265 188.197 7.41265H180.551C179.612 7.41265 179.142 6.94094 179.142 5.99751V1.41514C179.142 0.471714 179.612 0 180.551 0H205.905C206.844 0 207.314 0.471714 207.314 1.41514V5.99751C207.314 6.94094 206.844 7.41265 205.905 7.41265H198.259C197.722 7.41265 197.454 7.65974 197.454 8.15392V41.9152C197.454 42.8586 196.984 43.3303 196.045 43.3303Z" fill="white"/>
<path d="M235.778 43.3303H213.845C212.905 43.3303 212.436 42.8586 212.436 41.9152V1.41514C212.436 0.471714 212.905 0 213.845 0H235.778C236.673 0 237.12 0.471714 237.12 1.41514V5.99751C237.12 6.94094 236.673 7.41265 235.778 7.41265H221.76C221.223 7.41265 220.955 7.65974 220.955 8.15392V16.9143C220.955 17.4085 221.223 17.6556 221.76 17.6556H233.23C234.169 17.6556 234.638 18.1273 234.638 19.0707V23.6531C234.638 24.5965 234.169 25.0682 233.23 25.0682H221.76C221.223 25.0682 220.955 25.3153 220.955 25.8095V35.1764C220.955 35.6706 221.223 35.9177 221.76 35.9177H235.778C236.673 35.9177 237.12 36.3894 237.12 37.3328V41.9152C237.12 42.8586 236.673 43.3303 235.778 43.3303Z" fill="white"/>
<path d="M267.875 43.3303H245.942C245.002 43.3303 244.533 42.8586 244.533 41.9152V1.41514C244.533 0.471714 245.002 0 245.942 0H267.875C268.77 0 269.217 0.471714 269.217 1.41514V5.99751C269.217 6.94094 268.77 7.41265 267.875 7.41265H253.857C253.32 7.41265 253.052 7.65974 253.052 8.15392V16.9143C253.052 17.4085 253.32 17.6556 253.857 17.6556H265.327C266.266 17.6556 266.735 18.1273 266.735 19.0707V23.6531C266.735 24.5965 266.266 25.0682 265.327 25.0682H253.857C253.32 25.0682 253.052 25.3153 253.052 25.8095V35.1764C253.052 35.6706 253.32 35.9177 253.857 35.9177H267.875C268.77 35.9177 269.217 36.3894 269.217 37.3328V41.9152C269.217 42.8586 268.77 43.3303 267.875 43.3303Z" fill="white"/>
<path d="M283.74 43.3303H278.039C277.099 43.3303 276.63 42.8586 276.63 41.9152V1.41514C276.63 0.471714 277.099 0 278.039 0H294.003C297.491 0 300.218 0.965891 302.186 2.89767C304.154 4.82945 305.137 7.54743 305.137 11.0516V16.3078C305.137 21.3844 303.147 24.7538 299.168 26.416V26.6856L306.345 41.713C306.747 42.7912 306.367 43.3303 305.204 43.3303H299.771C298.966 43.3303 298.385 43.2405 298.027 43.0608C297.67 42.8811 297.379 42.4992 297.155 41.9152L290.448 27.3594H285.954C285.417 27.3594 285.149 27.6065 285.149 28.1007V41.9152C285.149 42.8586 284.679 43.3303 283.74 43.3303ZM285.886 20.4859H292.46C293.891 20.4859 294.942 20.1939 295.613 19.6098C296.283 18.9809 296.619 17.9925 296.619 16.6448V11.3885C296.619 9.99585 296.283 8.98503 295.613 8.35608C294.942 7.72713 293.891 7.41265 292.46 7.41265H285.886C285.395 7.41265 285.149 7.65974 285.149 8.15392V19.7446C285.149 20.2388 285.395 20.4859 285.886 20.4859Z" fill="white"/>
<path d="M6.69986 90.3481C6.36618 90.3481 6.06031 90.3295 5.78225 90.2921C5.50419 90.2547 5.25393 90.2174 5.03148 90.18L5.44857 88.2187C5.5598 88.2374 5.69883 88.256 5.86567 88.2747C6.01397 88.2934 6.18081 88.3027 6.36618 88.3027C6.92231 88.3027 7.39502 88.2187 7.78431 88.0506C8.15506 87.8824 8.46093 87.649 8.70192 87.3501C8.94291 87.0512 9.12828 86.7056 9.25805 86.3134C9.40635 85.9211 9.51757 85.5008 9.59172 85.0525L11.8718 70.4545L12.1221 70.8188H9.59172L9.81418 69.2777L12.4836 68.8294L12.0387 69.3337L12.4002 67.1202C12.6968 65.2523 13.3734 63.898 14.43 63.0574C15.5052 62.1982 16.775 61.7686 18.2395 61.7686C18.6659 61.7686 19.1015 61.8059 19.5464 61.8806C20.0098 61.9367 20.464 62.0487 20.9089 62.2169L20.2416 64.1502C19.945 64.0381 19.6391 63.9634 19.324 63.926C19.0274 63.87 18.7308 63.842 18.4342 63.842C17.6185 63.842 16.9048 64.0848 16.2931 64.5705C15.6813 65.0561 15.292 65.85 15.1252 66.9521L14.7637 69.3337L14.4578 68.8854H18.601L18.2673 70.8188H14.2354L14.5969 70.4545L12.4002 84.4081C12.2519 85.3607 12.0201 86.2013 11.705 86.9298C11.3899 87.677 10.9913 88.3027 10.5093 88.8071C10.0274 89.3114 9.46196 89.6944 8.81315 89.9559C8.18287 90.2174 7.47844 90.3481 6.69986 90.3481Z" fill="white"/>
<path d="M26.4433 68.4932C27.5184 68.4932 28.4546 68.6986 29.2517 69.1096C30.0674 69.5205 30.6976 70.1743 31.1425 71.0709C31.606 71.9489 31.8377 73.107 31.8377 74.5453C31.8377 75.7034 31.6709 76.8429 31.3372 77.9637C31.022 79.0657 30.5308 80.0651 29.8634 80.9617C29.2146 81.8583 28.3897 82.5775 27.3887 83.1192C26.4062 83.6422 25.2383 83.9037 23.8851 83.9037C22.8284 83.9037 21.8923 83.6982 21.0766 83.2873C20.2795 82.8764 19.6492 82.2319 19.1858 81.354C18.7409 80.4574 18.5184 79.2899 18.5184 77.8516C18.5184 76.6934 18.676 75.5633 18.9911 74.4613C19.3248 73.3405 19.8161 72.3318 20.4649 71.4352C21.1322 70.5386 21.9572 69.8287 22.9397 69.3057C23.9407 68.764 25.1085 68.4932 26.4433 68.4932ZM26.0818 70.5386C25.2476 70.5386 24.5246 70.7721 23.9129 71.239C23.3197 71.706 22.8284 72.3131 22.4391 73.0603C22.0498 73.7888 21.7625 74.5827 21.5771 75.4419C21.3918 76.2825 21.2991 77.0764 21.2991 77.8236C21.2991 79.0938 21.5401 80.0838 22.022 80.7936C22.5226 81.5034 23.2733 81.8583 24.2744 81.8583C25.09 81.8583 25.7944 81.6248 26.3876 81.1578C26.9994 80.6909 27.4999 80.0931 27.8892 79.3646C28.2785 78.6174 28.5658 77.8236 28.7512 76.983C28.9551 76.1237 29.0571 75.3112 29.0571 74.5453C29.0571 73.2751 28.8161 72.2944 28.3341 71.6033C27.8521 70.8935 27.1013 70.5386 26.0818 70.5386Z" fill="white"/>
<path d="M34.4687 83.6235L36.6932 69.5299L37.6386 71.239L34.4408 70.3424L34.6633 68.8574L39.3904 68.6613L38.3615 73.9289L37.5274 75.3579C37.8981 73.9009 38.445 72.6587 39.1679 71.6313C39.9094 70.6039 40.7251 69.8287 41.6149 69.3057C42.5232 68.764 43.413 68.4932 44.2843 68.4932C44.7292 68.4932 45.1092 68.5585 45.4244 68.6893L44.6736 73.0883H42.9774L43.0052 70.3704L43.3667 70.6787C42.8476 70.6413 42.3193 70.7721 41.7817 71.0709C41.2441 71.3511 40.7251 71.7901 40.2246 72.3878C39.7426 72.9856 39.3162 73.7234 38.9455 74.6013C38.5747 75.4793 38.2967 76.488 38.1113 77.6274L37.1937 83.6235H34.4687Z" fill="white"/>
<path d="M58.564 82.923C57.8781 83.2593 57.2107 83.5021 56.5619 83.6515C55.9316 83.8197 55.357 83.9037 54.8379 83.9037C53.911 83.9037 53.1603 83.6515 52.5856 83.1472C52.0295 82.6429 51.7514 81.8583 51.7514 80.7936C51.7514 80.6255 51.7514 80.4667 51.7514 80.3173C51.7699 80.1491 51.7885 79.981 51.807 79.8129L53.3086 70.2864L53.6144 70.7067H50.9172L51.1675 69.1656L54.0037 68.6613L53.4754 69.1936L54.0871 65.4671L56.8678 64.9908L56.2004 69.1936L55.9502 68.7734H60.0933L59.7874 70.7067H55.5887L56.0336 70.2864L54.5598 79.6448C54.5413 79.7195 54.5228 79.8223 54.5042 79.953C54.5042 80.0651 54.5042 80.1865 54.5042 80.3173C54.5042 80.8403 54.6155 81.2139 54.8379 81.438C55.0604 81.6622 55.3755 81.7743 55.7833 81.7743C56.0799 81.7743 56.4136 81.7182 56.7843 81.6061C57.1551 81.4941 57.5444 81.3353 57.9522 81.1298L58.564 82.923Z" fill="white"/>
<path d="M69.7791 83.7356L71.3362 74.097C71.4474 73.3685 71.4474 72.7521 71.3362 72.2477C71.2435 71.7434 71.0489 71.3605 70.7523 71.0989C70.4742 70.8374 70.1035 70.7067 69.64 70.7067C69.1766 70.7067 68.6853 70.8468 68.1663 71.127C67.6472 71.4072 67.1374 71.8274 66.6369 72.3878C66.155 72.9482 65.7286 73.6674 65.3578 74.5453C64.9871 75.4232 64.6997 76.4506 64.4958 77.6274L63.5782 83.6235H60.8532L63.9953 63.6739L64.3568 64.2062L61.882 63.6739L62.1323 62.1328L66.9706 61.9367L64.9129 73.9289L63.9119 75.3579C64.3568 73.7141 64.9593 72.3878 65.7193 71.3791C66.4979 70.3704 67.3321 69.6419 68.2219 69.1936C69.1117 68.7267 69.9644 68.4932 70.7801 68.4932C71.5772 68.4932 72.2538 68.6893 72.8099 69.0816C73.3661 69.4738 73.7646 70.0436 74.0056 70.7907C74.2651 71.5379 74.3022 72.4439 74.1169 73.5086L72.7821 82.0264L71.6421 81.1578L74.8954 82.0545L74.6452 83.5955L69.7791 83.7356Z" fill="white"/>
<path d="M82.6743 83.9037C81.6732 83.9037 80.7649 83.6982 79.9492 83.2873C79.1336 82.8764 78.4848 82.2319 78.0028 81.354C77.5208 80.476 77.2798 79.3273 77.2798 77.9076C77.2798 76.7121 77.4559 75.554 77.8081 74.4332C78.1789 73.3125 78.7072 72.3038 79.3931 71.4072C80.0975 70.5105 80.941 69.8007 81.9235 69.2777C82.9245 68.7547 84.0553 68.4932 85.3159 68.4932C86.7433 68.4932 87.8555 68.8294 88.6526 69.5019C89.4498 70.1556 89.8483 71.0149 89.8483 72.0796C89.8483 72.9389 89.5888 73.6954 89.0697 74.3492C88.5507 75.003 87.8462 75.554 86.9564 76.0023C86.0852 76.4506 85.1027 76.7868 84.009 77.011C82.9152 77.2352 81.7937 77.3472 80.6444 77.3472C80.4776 77.3472 80.3107 77.3472 80.1439 77.3472C79.977 77.3472 79.8102 77.3379 79.6434 77.3192L79.8102 75.3579C80.0327 75.3765 80.2551 75.3952 80.4776 75.4139C80.7185 75.4326 80.9595 75.4419 81.2005 75.4419C81.905 75.4419 82.6094 75.3765 83.3138 75.2458C84.0368 75.115 84.6856 74.9189 85.2603 74.6574C85.8535 74.3959 86.3262 74.0783 86.6784 73.7047C87.0306 73.3125 87.2067 72.8642 87.2067 72.3598C87.2067 71.7994 87.0028 71.3511 86.595 71.0149C86.2057 70.6787 85.6495 70.5105 84.9266 70.5105C84.148 70.5105 83.4436 70.7254 82.8133 71.155C82.2015 71.5846 81.6825 72.1637 81.2561 72.8922C80.8298 73.602 80.5054 74.3959 80.2829 75.2738C80.0605 76.1331 79.9492 76.9923 79.9492 77.8516C79.9492 79.2712 80.2458 80.2986 80.839 80.9337C81.4322 81.5688 82.2294 81.8863 83.2304 81.8863C83.8792 81.8863 84.5651 81.7743 85.2881 81.5501C86.0296 81.326 86.7711 81.0084 87.5126 80.5975L88.1799 82.1665C87.2716 82.7456 86.3447 83.1846 85.3993 83.4834C84.4724 83.7636 83.5641 83.9037 82.6743 83.9037Z" fill="white"/>
<path d="M107.948 90.3485H105.155C104.67 90.3485 104.503 90.0876 104.652 89.5657L115.1 55.1764C115.249 54.6545 115.603 54.3936 116.162 54.3936H120.184C120.743 54.3936 121.097 54.6545 121.246 55.1764L131.694 89.5657C131.843 90.0876 131.676 90.3485 131.192 90.3485H128.342C127.932 90.3485 127.672 90.0876 127.56 89.5657L124.934 81.4017H111.412L108.786 89.5657C108.637 90.0876 108.358 90.3485 107.948 90.3485ZM118.061 58.5874L112.306 77.9348H124.04L118.285 58.5874H118.061Z" fill="white"/>
<path d="M140.916 90.3485H138.457C137.936 90.3485 137.675 90.0876 137.675 89.5657V55.1764C137.675 54.6545 137.936 54.3936 138.457 54.3936H140.748C141.195 54.3936 141.493 54.5427 141.642 54.8409L157.063 81.9609H157.287V55.1764C157.287 54.6545 157.547 54.3936 158.069 54.3936H160.527C161.049 54.3936 161.31 54.6545 161.31 55.1764V89.5657C161.31 90.0876 161.049 90.3485 160.527 90.3485H158.46C158.05 90.3485 157.659 90.1062 157.287 89.6216L141.921 62.7812H141.698V89.5657C141.698 90.0876 141.437 90.3485 140.916 90.3485Z" fill="white"/>
<path d="M174.499 55.1764V89.5657C174.499 90.0876 174.238 90.3485 173.717 90.3485H171.202C170.681 90.3485 170.42 90.0876 170.42 89.5657V55.1764C170.42 54.6545 170.681 54.3936 171.202 54.3936H173.717C174.238 54.3936 174.499 54.6545 174.499 55.1764Z" fill="white"/>
<path d="M208.873 54.3936H213.398C213.92 54.3936 214.181 54.6545 214.181 55.1764V89.5657C214.181 90.0876 213.92 90.3485 213.398 90.3485H210.94C210.419 90.3485 210.158 90.0876 210.158 89.5657V59.8735H209.934L201.274 81.7931C201.05 82.2777 200.715 82.5201 200.268 82.5201H197.586C197.102 82.5201 196.785 82.2777 196.636 81.7931L187.808 59.8176H187.585V89.5657C187.585 90.0876 187.343 90.3485 186.859 90.3485H184.4C183.879 90.3485 183.618 90.0876 183.618 89.5657V55.1764C183.618 54.6545 183.879 54.3936 184.4 54.3936H188.926C189.261 54.3936 189.485 54.5427 189.596 54.8409L198.76 77.9907H199.039L208.202 54.8409C208.277 54.5427 208.5 54.3936 208.873 54.3936Z" fill="white"/>
<path d="M223.46 90.3485H220.666C220.182 90.3485 220.015 90.0876 220.164 89.5657L230.612 55.1764C230.761 54.6545 231.115 54.3936 231.673 54.3936H235.696C236.255 54.3936 236.609 54.6545 236.758 55.1764L247.206 89.5657C247.355 90.0876 247.188 90.3485 246.703 90.3485H243.854C243.444 90.3485 243.183 90.0876 243.072 89.5657L240.446 81.4017H226.924L224.298 89.5657C224.149 90.0876 223.87 90.3485 223.46 90.3485ZM233.573 58.5874L227.818 77.9348H239.552L233.797 58.5874H233.573Z" fill="white"/>
<path d="M271.905 90.3485H253.969C253.448 90.3485 253.187 90.0876 253.187 89.5657V55.1764C253.187 54.6545 253.448 54.3936 253.969 54.3936H256.484C257.005 54.3936 257.266 54.6545 257.266 55.1764V86.1547C257.266 86.4902 257.452 86.658 257.824 86.658H271.905C272.426 86.658 272.687 86.9375 272.687 87.4967V89.5657C272.687 90.0876 272.426 90.3485 271.905 90.3485Z" fill="white"/>
<path d="M278.004 82.0727V80.2834C278.004 79.7615 278.265 79.5005 278.787 79.5005H281.301C281.822 79.5005 282.083 79.7615 282.083 80.2834V81.7372C282.083 85.0923 283.741 86.7698 287.056 86.7698H291.973C295.288 86.7698 296.946 85.055 296.946 81.6254V79.7242C296.946 77.0401 294.729 75.2881 290.297 74.4679C288.434 74.1324 286.572 73.741 284.709 73.2937C282.847 72.8463 281.264 71.9889 279.96 70.7215C278.656 69.4167 278.004 67.646 278.004 65.4093V62.6693C278.004 60.0971 278.731 58.0841 280.183 56.6303C281.673 55.1391 283.704 54.3936 286.274 54.3936H292.476C295.009 54.3936 297.02 55.1391 298.51 56.6303C300 58.0841 300.745 60.0971 300.745 62.6693V64.0673C300.745 64.6265 300.503 64.906 300.019 64.906H297.448C296.964 64.906 296.722 64.6265 296.722 64.0673V63.0608C296.722 59.6684 295.064 57.9723 291.749 57.9723H287C283.685 57.9723 282.027 59.743 282.027 63.2844V65.5211C282.027 67.4223 283.275 68.7271 285.771 69.4354C286.888 69.7336 288.118 70.0132 289.458 70.2741C290.799 70.4978 292.14 70.8147 293.481 71.2247C294.86 71.5975 296.107 72.0821 297.225 72.6786C298.342 73.2378 299.236 74.1138 299.907 75.3067C300.615 76.4623 300.968 77.8789 300.968 79.5564V82.0727C300.968 84.6449 300.223 86.6766 298.733 88.1677C297.244 89.6216 295.232 90.3485 292.699 90.3485H286.274C283.741 90.3485 281.729 89.6216 280.239 88.1677C278.749 86.6766 278.004 84.6449 278.004 82.0727Z" fill="white"/>
<path d="M17.6006 129.819L16.957 129.252L19.5873 129.847V131.065H12.312V129.847L15.2221 129.28L14.9983 129.677L13.5152 125.145L13.935 125.485H5.37252L5.76426 125.145L4.1693 129.62L4.02939 129.309L6.88354 129.847V131.065H0V129.847L2.57433 129.252L1.98671 129.762L8.81429 111.323L11.1368 111.238L17.6006 129.819ZM6.07206 124.154L5.84821 123.785H13.4873L13.2354 124.182L9.5698 112.654L10.1015 112.682L6.07206 124.154Z" fill="white"/>
<path d="M20.2162 131.065V129.847L22.7346 129.28L22.3988 129.705V117.526L22.7346 117.951L20.2162 117.412V116.194L24.1337 115.996L24.4415 118.772L24.1337 118.659C25.0664 117.696 26.0365 116.988 27.0438 116.534C28.0698 116.081 29.0398 115.855 29.9539 115.855C31.1851 115.855 32.2018 116.242 33.0039 117.016C33.8247 117.771 34.2258 118.951 34.2072 120.556V129.705L33.9273 129.309L36.3898 129.847V131.065H29.87V129.847L32.3044 129.309L31.9686 129.734V121.038C31.9686 119.867 31.7075 119.008 31.1851 118.46C30.6628 117.913 29.9633 117.639 29.0865 117.639C28.3963 117.639 27.6408 117.828 26.82 118.206C26.0178 118.583 25.225 119.169 24.4415 119.962L24.6374 119.508V129.734L24.3576 129.337L26.736 129.847V131.065H20.2162Z" fill="white"/>
<path d="M43.7158 131.32C42.6898 131.32 41.757 131.037 40.9176 130.47C40.0781 129.885 39.4159 129.035 38.9309 127.921C38.4458 126.788 38.2033 125.419 38.2033 123.814C38.2033 121.189 38.8656 119.206 40.19 117.866C41.5145 116.525 43.3333 115.855 45.6465 115.855C46.1315 115.855 46.6352 115.892 47.1575 115.968C47.6985 116.043 48.2488 116.157 48.8084 116.308L48.3607 116.563V110.869L48.6126 111.181L46.0382 110.615V109.397L50.5993 109.198V129.677L50.2635 129.28L52.7819 129.79V131.037L48.8644 131.207L48.5286 128.771L48.8084 128.884C47.969 129.696 47.1202 130.31 46.2621 130.725C45.4226 131.122 44.5739 131.32 43.7158 131.32ZM44.4992 129.592C45.1522 129.592 45.8237 129.422 46.5139 129.082C47.2228 128.723 47.9317 128.195 48.6406 127.496L48.3607 128.261V117.526L48.6685 118.092C47.5306 117.715 46.4953 117.526 45.5626 117.526C43.921 117.526 42.6711 118.064 41.813 119.14C40.9549 120.217 40.5258 121.708 40.5258 123.616C40.5258 124.862 40.6937 125.938 41.0295 126.845C41.3839 127.732 41.8596 128.412 42.4566 128.884C43.0722 129.356 43.7531 129.592 44.4992 129.592Z" fill="white"/>
<path d="M73.5715 118.687L73.2637 118.744C74.1778 117.781 75.1478 117.063 76.1738 116.591C77.1998 116.1 78.1605 115.855 79.056 115.855C80.1939 115.855 81.1453 116.242 81.9101 117.016C82.6936 117.771 83.0854 118.942 83.0854 120.528V129.705L82.8055 129.309L85.2679 129.847V131.065H78.7761V129.847L81.1546 129.309L80.8468 129.734V121.038C80.8468 119.867 80.595 119.008 80.0913 118.46C79.6063 117.913 78.972 117.639 78.1885 117.639C77.517 117.639 76.7708 117.837 75.95 118.234C75.1478 118.63 74.355 119.235 73.5715 120.047L73.7674 119.508C73.786 119.678 73.7954 119.839 73.7954 119.99C73.814 120.141 73.8234 120.292 73.8234 120.443V129.705L73.5435 129.309L75.866 129.847V131.065H69.5421V129.847L71.9206 129.309L71.5848 129.734V121.038C71.5848 119.867 71.333 119.008 70.8293 118.46C70.3443 117.913 69.71 117.639 68.9265 117.639C68.255 117.639 67.5181 117.828 66.716 118.206C65.9138 118.583 65.121 119.169 64.3375 119.962L64.5334 119.537V129.734L64.2536 129.337L66.5761 129.847V131.065H60.1122V129.847L62.6306 129.28L62.2948 129.705V117.526L62.6306 117.951L60.1122 117.412V116.194L64.0297 115.996L64.3375 118.772L64.0297 118.659C64.9438 117.696 65.9045 116.988 66.9118 116.534C67.9378 116.081 68.9079 115.855 69.8219 115.855C70.6801 115.855 71.4449 116.091 72.1165 116.563C72.788 117.016 73.273 117.724 73.5715 118.687Z" fill="white"/>
<path d="M98.3103 129.79L97.9466 129.28L100.521 129.79V131.037L96.6034 131.207L96.2676 128.487L96.4635 128.572C95.6427 129.479 94.7566 130.168 93.8052 130.64C92.8539 131.093 91.9305 131.32 91.035 131.32C89.9531 131.32 89.039 130.97 88.2928 130.272C87.5466 129.573 87.1735 128.516 87.1735 127.099C87.1735 125.985 87.4067 125.136 87.8731 124.55C88.3395 123.946 88.983 123.521 89.8038 123.276C90.6246 123.03 91.576 122.907 92.658 122.907H96.3236L96.0718 123.191V120.471C96.0718 119.433 95.8013 118.696 95.2603 118.262C94.7193 117.809 93.9731 117.582 93.0217 117.582C92.5181 117.582 91.9771 117.639 91.3988 117.752C90.8392 117.847 90.2422 118.007 89.608 118.234L89.9437 117.866L89.6639 120.443H88.1809L87.957 116.931C89.0203 116.572 90.0184 116.308 90.9511 116.138C91.8838 115.949 92.7419 115.855 93.5254 115.855C95.0178 115.855 96.1837 116.194 97.0232 116.874C97.8813 117.535 98.3103 118.602 98.3103 120.075V129.79ZM89.4401 126.901C89.4401 127.826 89.6546 128.506 90.0837 128.941C90.5314 129.375 91.091 129.592 91.7626 129.592C92.4155 129.592 93.1337 129.394 93.9172 128.997C94.7193 128.582 95.4935 128.025 96.2397 127.326L96.0718 127.921V124.125L96.3236 124.38H92.9938C91.6693 124.38 90.7459 124.588 90.2236 125.003C89.7012 125.4 89.4401 126.033 89.4401 126.901Z" fill="white"/>
<path d="M101.721 131.065V129.847L104.267 129.28L103.931 129.762V110.784L104.155 111.124L101.721 110.615V109.397L106.17 109.198V122.369L105.75 122.001H109.611L109.024 122.313L111.99 117.441L112.186 117.752L109.891 117.412V116.194L116.019 115.996V117.214L113.529 117.724L114.173 117.299L110.759 122.879L110.731 122.199L114.9 129.677L114.48 129.309L116.775 129.847V131.065H113.277L109.108 123.361L109.556 123.587H105.75L106.17 123.332V129.762L105.862 129.28L108.296 129.847V131.065H101.721Z" fill="white"/>
<path d="M123.665 131.32C122.415 131.32 121.305 131.037 120.335 130.47C119.383 129.885 118.637 129.035 118.096 127.921C117.555 126.807 117.285 125.447 117.285 123.842C117.285 122.199 117.565 120.783 118.124 119.593C118.684 118.404 119.477 117.488 120.503 116.846C121.529 116.185 122.732 115.855 124.112 115.855C125.418 115.855 126.491 116.138 127.33 116.704C128.188 117.252 128.823 118.017 129.233 118.999C129.662 119.981 129.877 121.104 129.877 122.369C129.877 122.577 129.867 122.785 129.849 122.992C129.83 123.2 129.802 123.455 129.765 123.757H118.992V122.143H127.806L127.554 122.313C127.573 121.463 127.47 120.679 127.246 119.962C127.023 119.244 126.64 118.668 126.099 118.234C125.558 117.8 124.84 117.582 123.945 117.582C122.993 117.582 122.191 117.837 121.538 118.347C120.885 118.857 120.4 119.556 120.083 120.443C119.766 121.331 119.607 122.36 119.607 123.531C119.607 124.777 119.785 125.853 120.139 126.76C120.493 127.647 121.006 128.336 121.678 128.827C122.368 129.318 123.208 129.564 124.196 129.564C124.887 129.564 125.642 129.432 126.463 129.167C127.284 128.884 128.132 128.459 129.009 127.893L129.821 129.167C128.776 129.885 127.731 130.423 126.687 130.782C125.642 131.14 124.635 131.32 123.665 131.32Z" fill="white"/>
<path d="M149.41 129.79L149.046 129.28L151.621 129.79V131.037L147.703 131.207L147.367 128.487L147.563 128.572C146.742 129.479 145.856 130.168 144.905 130.64C143.954 131.093 143.03 131.32 142.135 131.32C141.053 131.32 140.139 130.97 139.393 130.272C138.646 129.573 138.273 128.516 138.273 127.099C138.273 125.985 138.506 125.136 138.973 124.55C139.439 123.946 140.083 123.521 140.904 123.276C141.724 123.03 142.676 122.907 143.758 122.907H147.423L147.171 123.191V120.471C147.171 119.433 146.901 118.696 146.36 118.262C145.819 117.809 145.073 117.582 144.121 117.582C143.618 117.582 143.077 117.639 142.498 117.752C141.939 117.847 141.342 118.007 140.708 118.234L141.043 117.866L140.764 120.443H139.281L139.057 116.931C140.12 116.572 141.118 116.308 142.051 116.138C142.984 115.949 143.842 115.855 144.625 115.855C146.117 115.855 147.283 116.194 148.123 116.874C148.981 117.535 149.41 118.602 149.41 120.075V129.79ZM140.54 126.901C140.54 127.826 140.754 128.506 141.183 128.941C141.631 129.375 142.191 129.592 142.862 129.592C143.515 129.592 144.233 129.394 145.017 128.997C145.819 128.582 146.593 128.025 147.339 127.326L147.171 127.921V124.125L147.423 124.38H144.093C142.769 124.38 141.846 124.588 141.323 125.003C140.801 125.4 140.54 126.033 140.54 126.901Z" fill="white"/>
<path d="M158.954 131.065L161.192 116.818L162.563 119.282L159.01 118.092L159.346 116.025L164.97 115.826L163.935 120.641L162.731 122.794C163.067 121.208 163.599 119.886 164.326 118.829C165.072 117.752 165.912 116.95 166.845 116.421C167.796 115.873 168.719 115.6 169.615 115.6C170.119 115.6 170.557 115.675 170.93 115.826L170.035 120.896H167.712L167.684 118.29L168.132 118.659C167.647 118.602 167.171 118.715 166.705 118.999C166.257 119.263 165.837 119.669 165.446 120.217C165.072 120.745 164.737 121.387 164.438 122.143C164.158 122.879 163.953 123.71 163.823 124.635L162.815 131.065H158.954Z" fill="white"/>
<path d="M176.24 131.405C175.158 131.405 174.178 131.188 173.302 130.753C172.425 130.319 171.725 129.639 171.203 128.714C170.699 127.789 170.448 126.59 170.448 125.117C170.448 123.908 170.634 122.737 171.007 121.604C171.399 120.453 171.949 119.433 172.658 118.545C173.386 117.639 174.272 116.921 175.316 116.393C176.361 115.864 177.546 115.6 178.87 115.6C180.437 115.6 181.659 115.968 182.536 116.704C183.431 117.422 183.879 118.375 183.879 119.565C183.879 120.453 183.627 121.236 183.123 121.916C182.62 122.596 181.939 123.172 181.081 123.644C180.241 124.097 179.281 124.446 178.199 124.692C177.135 124.918 176.025 125.032 174.869 125.032C174.663 125.032 174.477 125.032 174.309 125.032C174.16 125.013 174.02 125.003 173.889 125.003L174.085 122.483C174.29 122.501 174.486 122.52 174.673 122.539C174.878 122.558 175.083 122.568 175.288 122.568C175.867 122.568 176.436 122.52 176.995 122.426C177.574 122.313 178.087 122.152 178.534 121.944C179.001 121.718 179.374 121.444 179.654 121.123C179.933 120.783 180.073 120.396 180.073 119.962C180.073 119.508 179.915 119.14 179.598 118.857C179.299 118.555 178.879 118.404 178.338 118.404C177.686 118.404 177.107 118.612 176.604 119.027C176.119 119.423 175.699 119.952 175.344 120.613C175.009 121.274 174.747 121.992 174.561 122.766C174.374 123.54 174.281 124.295 174.281 125.032C174.281 126.278 174.533 127.175 175.037 127.723C175.559 128.27 176.249 128.544 177.107 128.544C177.723 128.544 178.385 128.431 179.094 128.204C179.803 127.978 180.54 127.666 181.305 127.269L182.312 129.564C181.286 130.168 180.251 130.631 179.206 130.952C178.18 131.254 177.191 131.405 176.24 131.405Z" fill="white"/>
<path d="M188.96 131.405C188.214 131.405 187.524 131.207 186.89 130.81C186.274 130.413 185.78 129.8 185.407 128.969C185.034 128.138 184.847 127.052 184.847 125.712C184.847 124.314 185.062 123.002 185.491 121.774C185.92 120.547 186.526 119.471 187.309 118.545C188.093 117.62 188.998 116.893 190.024 116.364C191.068 115.836 192.197 115.571 193.41 115.571C194.212 115.571 195.032 115.704 195.872 115.968C196.711 116.232 197.551 116.676 198.39 117.299L196.655 116.931L197.411 115.94H199.482L197.243 130.243L195.928 127.723L199.482 128.912L199.146 131.037L193.689 131.207L194.529 126.278L195.676 124.182C195.359 125.768 194.827 127.099 194.081 128.176C193.354 129.252 192.533 130.064 191.619 130.612C190.705 131.14 189.819 131.405 188.96 131.405ZM190.527 128.232C190.919 128.232 191.32 128.11 191.731 127.864C192.16 127.6 192.561 127.213 192.934 126.703C193.326 126.174 193.671 125.542 193.969 124.805C194.268 124.05 194.501 123.181 194.669 122.199L195.284 118.262L195.928 119.565C195.462 119.206 195.014 118.951 194.585 118.8C194.156 118.63 193.736 118.545 193.326 118.545C192.654 118.545 192.038 118.734 191.479 119.112C190.938 119.471 190.462 119.971 190.052 120.613C189.641 121.236 189.324 121.954 189.1 122.766C188.895 123.559 188.793 124.39 188.793 125.258C188.793 126.278 188.951 127.033 189.268 127.524C189.585 127.996 190.005 128.232 190.527 128.232Z" fill="white"/>
<path d="M201.407 131.207L204.737 109.991L206.108 112.427L202.555 111.379L202.862 109.227L208.739 109L205.409 130.215L203.982 127.723L207.647 128.912L207.311 131.037L201.407 131.207Z" fill="white"/>
<path d="M219.937 129.62L219.685 129.309L222.119 129.847V131.065H215.515V129.847L217.95 129.309L217.698 129.62V117.667L217.922 117.922L215.515 117.412V116.194L219.937 116.025V129.62ZM218.649 112.965C218.22 112.965 217.866 112.824 217.586 112.541C217.306 112.257 217.166 111.87 217.166 111.379C217.166 110.869 217.306 110.482 217.586 110.218C217.885 109.935 218.248 109.793 218.677 109.793C219.125 109.793 219.489 109.925 219.769 110.19C220.048 110.454 220.188 110.851 220.188 111.379C220.188 111.889 220.039 112.286 219.741 112.569C219.442 112.833 219.078 112.965 218.649 112.965Z" fill="white"/>
<path d="M237.309 118.687L237.001 118.744C237.915 117.781 238.885 117.063 239.911 116.591C240.937 116.1 241.898 115.855 242.794 115.855C243.931 115.855 244.883 116.242 245.648 117.016C246.431 117.771 246.823 118.942 246.823 120.528V129.705L246.543 129.309L249.006 129.847V131.065H242.514V129.847L244.892 129.309L244.584 129.734V121.038C244.584 119.867 244.333 119.008 243.829 118.46C243.344 117.913 242.71 117.639 241.926 117.639C241.255 117.639 240.508 117.837 239.688 118.234C238.885 118.63 238.093 119.235 237.309 120.047L237.505 119.508C237.524 119.678 237.533 119.839 237.533 119.99C237.552 120.141 237.561 120.292 237.561 120.443V129.705L237.281 129.309L239.604 129.847V131.065H233.28V129.847L235.658 129.309L235.322 129.734V121.038C235.322 119.867 235.071 119.008 234.567 118.46C234.082 117.913 233.448 117.639 232.664 117.639C231.993 117.639 231.256 117.828 230.454 118.206C229.651 118.583 228.859 119.169 228.075 119.962L228.271 119.537V129.734L227.991 129.337L230.314 129.847V131.065H223.85V129.847L226.368 129.28L226.032 129.705V117.526L226.368 117.951L223.85 117.412V116.194L227.767 115.996L228.075 118.772L227.767 118.659C228.681 117.696 229.642 116.988 230.649 116.534C231.675 116.081 232.645 115.855 233.56 115.855C234.418 115.855 235.182 116.091 235.854 116.563C236.526 117.016 237.011 117.724 237.309 118.687Z" fill="white"/>
<path d="M250.24 137.58V136.362L252.786 135.767L252.422 136.192V117.582L252.758 117.951L250.24 117.412V116.194L254.157 115.996L254.437 118.46L254.185 118.29C255.043 117.479 255.901 116.874 256.759 116.478C257.617 116.062 258.466 115.855 259.306 115.855C260.35 115.855 261.283 116.147 262.104 116.733C262.943 117.318 263.606 118.168 264.091 119.282C264.576 120.377 264.818 121.727 264.818 123.332C264.818 125.07 264.52 126.533 263.923 127.723C263.344 128.912 262.524 129.819 261.46 130.442C260.397 131.046 259.147 131.348 257.711 131.348C257.188 131.348 256.647 131.301 256.088 131.207C255.528 131.112 254.941 130.989 254.325 130.838L254.661 130.527V136.192L254.353 135.795L257.235 136.362V137.58H250.24ZM257.459 129.649C259.1 129.649 260.35 129.111 261.208 128.034C262.067 126.958 262.496 125.466 262.496 123.559C262.496 122.313 262.318 121.246 261.964 120.358C261.628 119.471 261.162 118.791 260.565 118.319C259.968 117.828 259.287 117.582 258.522 117.582C257.869 117.582 257.188 117.762 256.48 118.121C255.789 118.46 255.09 118.989 254.381 119.707L254.661 118.999V129.62L254.353 129.111C255.491 129.469 256.526 129.649 257.459 129.649Z" fill="white"/>
<path d="M278.717 129.79L278.353 129.28L280.927 129.79V131.037L277.01 131.207L276.674 128.487L276.87 128.572C276.049 129.479 275.163 130.168 274.212 130.64C273.26 131.093 272.337 131.32 271.441 131.32C270.36 131.32 269.445 130.97 268.699 130.272C267.953 129.573 267.58 128.516 267.58 127.099C267.58 125.985 267.813 125.136 268.28 124.55C268.746 123.946 269.389 123.521 270.21 123.276C271.031 123.03 271.982 122.907 273.064 122.907H276.73L276.478 123.191V120.471C276.478 119.433 276.208 118.696 275.667 118.262C275.126 117.809 274.38 117.582 273.428 117.582C272.925 117.582 272.384 117.639 271.805 117.752C271.246 117.847 270.649 118.007 270.014 118.234L270.35 117.866L270.07 120.443H268.587L268.363 116.931C269.427 116.572 270.425 116.308 271.358 116.138C272.29 115.949 273.148 115.855 273.932 115.855C275.424 115.855 276.59 116.194 277.43 116.874C278.288 117.535 278.717 118.602 278.717 120.075V129.79ZM269.847 126.901C269.847 127.826 270.061 128.506 270.49 128.941C270.938 129.375 271.497 129.592 272.169 129.592C272.822 129.592 273.54 129.394 274.324 128.997C275.126 128.582 275.9 128.025 276.646 127.326L276.478 127.921V124.125L276.73 124.38H273.4C272.076 124.38 271.152 124.588 270.63 125.003C270.108 125.4 269.847 126.033 269.847 126.901Z" fill="white"/>
<path d="M289.067 131.32C287.873 131.32 286.791 131.027 285.821 130.442C284.869 129.838 284.114 128.969 283.554 127.836C283.013 126.703 282.743 125.343 282.743 123.757C282.743 122.379 282.929 121.198 283.302 120.217C283.694 119.216 284.216 118.394 284.869 117.752C285.522 117.11 286.268 116.638 287.108 116.336C287.966 116.015 288.852 115.855 289.766 115.855C290.512 115.855 291.305 115.958 292.145 116.166C293.003 116.374 293.749 116.657 294.383 117.016L294.271 120.556H292.76L292.396 117.894L292.62 118.149C292.154 117.922 291.66 117.762 291.137 117.667C290.615 117.573 290.149 117.526 289.738 117.526C288.768 117.526 287.929 117.781 287.22 118.29C286.53 118.781 285.998 119.48 285.625 120.387C285.252 121.293 285.065 122.369 285.065 123.616C285.065 124.9 285.261 125.985 285.653 126.873C286.045 127.76 286.576 128.431 287.248 128.884C287.938 129.337 288.712 129.564 289.57 129.564C290.242 129.564 290.951 129.422 291.697 129.139C292.443 128.856 293.217 128.431 294.019 127.864L294.803 129.111C293.833 129.866 292.863 130.423 291.893 130.782C290.923 131.14 289.981 131.32 289.067 131.32Z" fill="white"/>
<path d="M301.463 131.32C300.493 131.32 299.728 131.018 299.168 130.413C298.608 129.79 298.329 128.856 298.329 127.609V117.327L298.692 117.696H295.81V116.449L298.72 116.025L298.329 116.478V112.739L300.567 112.371V116.478L300.259 116.109H304.652L304.569 117.696H300.259L300.567 117.327V127.298C300.567 128.091 300.716 128.667 301.015 129.026C301.332 129.384 301.77 129.564 302.33 129.564C302.666 129.564 303.03 129.507 303.421 129.394C303.813 129.28 304.233 129.12 304.68 128.912L305.156 130.215C303.832 130.952 302.6 131.32 301.463 131.32Z" fill="white"/>
</svg>
