<?xml version="1.0" standalone="no"?>
<!DOCTYPE svg PUBLIC "-//W3C//DTD SVG 20010904//EN"
 "http://www.w3.org/TR/2001/REC-SVG-20010904/DTD/svg10.dtd">
<svg version="1.0" xmlns="http://www.w3.org/2000/svg"
 width="300.000000pt" height="300.000000pt" viewBox="0 0 300.000000 300.000000"
 preserveAspectRatio="xMidYMid meet">
<metadata>
Created by potrace 1.14, written by Peter Selinger 2001-2017
</metadata>
<g transform="translate(0.000000,300.000000) scale(0.100000,-0.100000)"
fill="#000000" stroke="none">
<path d="M1309 2799 c-327 -48 -629 -223 -840 -487 -62 -78 -145 -209 -137
-218 3 -2 72 -4 154 -2 309 4 314 4 371 -25 55 -28 93 -70 118 -130 20 -47 29
-47 20 0 -9 47 -30 91 -63 125 -14 15 -23 30 -21 32 11 12 127 36 170 36 132
0 318 -80 420 -180 77 -75 107 -131 144 -261 15 -52 37 -105 49 -117 27 -30
81 -58 129 -67 20 -4 37 -8 37 -10 0 -10 -92 -139 -128 -179 -24 -28 -50 -63
-58 -78 -17 -32 -21 -91 -10 -125 7 -21 4 -23 -27 -23 -64 0 -142 20 -212 54
-38 19 -71 33 -73 31 -2 -2 17 -24 42 -49 47 -45 133 -86 181 -86 42 0 28 -18
-27 -35 -66 -19 -178 -19 -274 1 -42 8 -78 13 -81 11 -9 -9 65 -47 122 -62
151 -39 340 0 520 106 39 23 94 50 124 60 69 24 118 61 139 106 l17 35 55 -6
c153 -18 364 -96 442 -165 l37 -32 -34 -75 c-196 -429 -640 -714 -1115 -714
-327 0 -627 125 -861 359 -151 151 -255 326 -314 526 -44 149 -41 177 36 335
94 190 81 180 161 126 73 -49 164 -75 201 -59 18 8 15 11 -23 17 -78 12 -151
60 -242 159 -47 51 -112 114 -146 140 l-61 48 -15 -49 c-51 -173 -67 -435 -37
-602 75 -416 342 -773 717 -959 192 -95 360 -134 579 -134 162 -1 264 14 408
59 332 105 622 354 777 666 42 85 52 115 56 173 6 72 -10 168 -41 241 l-15 36
-40 -36 c-45 -40 -89 -47 -140 -21 -43 22 -60 53 -60 110 0 86 53 132 142 122
47 -6 49 -5 42 16 -4 12 -15 34 -25 49 -11 15 -15 29 -10 32 14 9 78 -69 86
-105 4 -19 20 -47 35 -64 16 -16 44 -54 63 -84 l35 -53 8 48 c10 68 -3 306
-21 389 -58 266 -175 482 -364 669 -201 200 -437 323 -715 371 -95 16 -311 18
-407 4z m506 -433 c17 -25 16 -34 -25 -185 -11 -41 -20 -95 -20 -120 0 -60
-39 -141 -81 -173 -61 -45 -65 -44 -109 26 -48 76 -108 133 -184 176 -60 34
-61 40 -19 98 26 35 69 60 148 86 28 9 88 38 135 66 95 56 132 62 155 26z
m438 -226 c-2 -55 -44 -286 -64 -347 -12 -36 -49 -48 -49 -15 0 20 66 375 75
404 4 11 14 18 23 16 14 -3 17 -14 15 -58z m-136 -25 c7 -21 -17 -47 -88 -92
-32 -21 -59 -40 -59 -43 0 -3 26 -23 56 -45 31 -22 65 -51 76 -64 16 -22 17
-26 4 -39 -9 -9 -23 -12 -38 -8 -39 10 -188 126 -188 145 0 29 37 69 109 117
68 46 117 57 128 29z m309 -58 c87 -56 99 -67 99 -92 0 -25 -13 -37 -100 -97
-103 -70 -128 -79 -139 -52 -13 33 -4 45 65 95 39 28 67 55 62 59 -4 3 -32 23
-61 44 -56 40 -77 69 -68 92 10 26 41 15 142 -49z m-429 -572 c31 -22 63 -115
63 -184 0 -54 -3 -61 -33 -88 -18 -16 -49 -35 -68 -42 -18 -7 -63 -26 -99 -41
-98 -44 -106 -45 -135 -16 -42 42 -31 85 39 165 25 29 67 83 92 122 41 62 80
97 109 99 6 0 20 -7 32 -15z"/>
<path d="M1966 1322 c-17 -32 -22 -82 -8 -82 4 0 18 7 30 16 25 17 29 51 8 79
-13 18 -14 17 -30 -13z"/>
<path d="M1852 1281 c-27 -47 -28 -71 -4 -71 29 0 52 33 52 73 0 49 -20 48
-48 -2z"/>
<path d="M371 1976 c-10 -11 -2 -22 40 -58 28 -23 92 -78 141 -121 112 -97
138 -111 196 -104 141 16 179 199 56 268 -42 24 -415 36 -433 15z"/>
<path d="M1118 1580 c-31 -24 -46 -66 -20 -54 85 36 96 37 137 18 22 -10 43
-20 48 -22 18 -9 4 28 -19 52 -34 33 -108 37 -146 6z"/>
<path d="M2527 1442 c-20 -22 -22 -63 -5 -80 19 -19 66 -14 88 8 29 29 25 57
-10 75 -38 20 -53 19 -73 -3z"/>
</g>
</svg>
