<svg width="74" height="55" fill="none" xmlns="http://www.w3.org/2000/svg"><path fill="#FFC709" d="M13.4 19.7h7v7h-7z"/><path fill="#FFC709" d="M7 13.4h7v7H7zM0 20.4h7v7H0z"/><path fill="#FFC709" d="M6.3 26.7h7v7h-7zM13.4 33.7h7v7h-7z"/><path fill="#FFC709" d="M19.7 40.1h7v7h-7zM26.7 47.1h7v7h-7zM26.7 33h7v7h-7zM33 40.1h7v7h-7zM33.7 26.7h7v7h-7z"/><path fill="#FFC709" d="M40.1 33h7v7h-7zM47.1 26.7h7v7h-7zM40.1 19.7h7v7h-7z"/><path fill="#FFC709" d="M46.4 13.4h7v7h-7zM53.4 19.7h7v7h-7zM60.5 13.4h7v7h-7z"/><path fill="#FFC709" d="M66.8 7h7v7h-7zM53.4 6.3h7v7h-7z"/><path fill="#FFC709" d="M59.8 0h7v7h-7zM19.7 26.7h7v7h-7z"/></svg>
